<svg width="200" height="136" viewBox="0 0 200 136" fill="none" xmlns="http://www.w3.org/2000/svg">
<rect width="200" height="136" fill="white"/>
<rect width="200" height="136" fill="white"/>
<g clip-path="url(#clip0_974_5287)">
<rect width="96" height="24" transform="translate(52 39.5)" fill="white"/>
<path d="M61.7008 63.5V42.6019H53.3611V40.6069H72.297V42.6019H63.9901V63.5H61.7008Z" fill="#0E2A65"/>
<path d="M84.0721 53.7214H78.0545V63.5H75.7979V40.6069H85.1186C90.057 40.6069 92.4771 43.3868 92.4771 47.1151C92.4771 50.8434 90.1224 52.9692 87.0809 53.4598V53.4925C87.3425 53.9503 87.506 54.212 87.8658 54.866L92.9677 63.5H90.3186L84.8897 54.1793C84.6608 53.7868 84.5954 53.7214 84.0721 53.7214ZM78.0545 42.6019V51.7591H84.9551C88.4545 51.7591 90.1878 49.8623 90.1878 47.1805C90.1878 44.4661 88.4218 42.6019 84.9224 42.6019H78.0545Z" fill="#0E2A65"/>
<path d="M97.0046 63.5V40.6069H99.2939V63.5H97.0046Z" fill="#0E2A65"/>
<path d="M121.312 63.5L118.663 56.9591H107.38L104.731 63.5H102.409L111.827 40.6069H114.346L123.764 63.5H121.312ZM108.164 54.9642H117.878L113.037 42.9616L108.164 54.9642Z" fill="#0E2A65"/>
<path d="M126.867 63.5V40.6069H133.604C141.028 40.6069 145.639 44.4333 145.639 51.9226C145.639 59.2157 140.995 63.5 133.571 63.5H126.867ZM129.156 61.505H133.375C139.817 61.505 143.284 57.8094 143.284 51.9226C143.284 46.0032 139.817 42.6019 133.375 42.6019H129.156V61.505Z" fill="#0E2A65"/>
</g>
<rect x="52" y="73.5" width="96" height="23" rx="11.5" fill="#0E2A65"/>
<path d="M67.7514 89.3619C65.7834 89.3619 64.4034 88.1259 64.4034 85.9179V80.8179H65.6154V85.8579C65.6154 87.3939 66.5034 88.2819 67.7634 88.2819C69.0474 88.2819 69.9114 87.4059 69.9114 85.8699V80.8179H71.1234V85.9059C71.1234 88.1019 69.7314 89.3619 67.7514 89.3619Z" fill="white"/>
<path d="M74.1841 89.2179V80.8179H77.3161C79.2601 80.8179 80.3041 81.8379 80.3041 83.4219C80.3041 85.0299 79.2121 86.0499 77.3041 86.0499H75.3841V89.2179H74.1841ZM75.3841 85.0059H77.2321C78.4321 85.0059 79.0681 84.3939 79.0681 83.4339C79.0681 82.4859 78.4201 81.8499 77.2321 81.8499H75.3841V85.0059Z" fill="white"/>
<path d="M82.8138 89.2179V80.8179H84.0138V88.1859H88.1178V89.2179H82.8138Z" fill="white"/>
<path d="M94.2843 89.3619C91.9803 89.3619 90.1083 87.6579 90.1083 84.9699C90.1083 82.3059 92.0283 80.6379 94.2843 80.6379C96.5643 80.6379 98.4723 82.2819 98.4723 84.9699C98.4723 87.6459 96.5763 89.3619 94.2843 89.3619ZM94.2843 88.2819C95.9403 88.2819 97.2003 86.9619 97.2003 84.9699C97.2003 82.9899 95.9283 81.7179 94.2843 81.7179C92.6403 81.7179 91.3683 82.9899 91.3683 84.9699C91.3683 86.9499 92.6403 88.2819 94.2843 88.2819Z" fill="white"/>
<path d="M107.079 89.2179L106.227 87.0219H102.339L101.487 89.2179H100.275L103.659 80.8179H104.979L108.363 89.2179H107.079ZM102.747 85.9899H105.819L104.283 82.0419L102.747 85.9899Z" fill="white"/>
<path d="M110.636 89.2179V80.8179H113.276C115.976 80.8179 117.692 82.1619 117.692 84.9699C117.692 87.6819 115.964 89.2179 113.264 89.2179H110.636ZM111.836 88.1859H113.144C115.364 88.1859 116.444 86.9499 116.444 84.9699C116.444 82.9899 115.364 81.8499 113.144 81.8499H111.836V88.1859Z" fill="white"/>
<path d="M126.283 88.1859V89.2179H120.391V80.8179H126.199V81.8499H121.579V84.3339H125.875V85.3779H121.579V88.1859H126.283Z" fill="white"/>
<path d="M132.045 85.7859H130.221V89.2179H129.033V80.8179H132.609C134.505 80.8179 135.393 81.8859 135.393 83.2779C135.393 84.6339 134.565 85.4139 133.557 85.6419V85.6539C133.665 85.8459 133.737 85.9539 133.869 86.1939L135.597 89.2179H134.217L132.381 85.9779C132.285 85.8099 132.261 85.7859 132.045 85.7859ZM130.221 81.8499V84.7539H132.501C133.629 84.7539 134.181 84.1659 134.181 83.3139C134.181 82.4379 133.617 81.8499 132.501 81.8499H130.221Z" fill="white"/>
<defs>
<clipPath id="clip0_974_5287">
<rect width="96" height="24" fill="white" transform="translate(52 39.5)"/>
</clipPath>
</defs>
</svg>
