<svg width="200" height="136" viewBox="0 0 200 136" fill="none" xmlns="http://www.w3.org/2000/svg">
<rect width="200" height="136" fill="white"/>
<rect width="200" height="136" fill="white"/>
<path d="M157.079 65.504C156.941 65.4229 156.889 65.3011 156.97 65.1446L157.863 63.2724C157.927 63.1333 158.054 63.0695 158.209 63.1623C158.942 63.6202 159.836 64.1071 160.96 64.1071C161.427 64.1071 161.744 64.0143 161.929 63.8694C162.194 63.6782 162.24 63.4115 162.24 63.255C162.24 62.7044 161.675 62.4377 160.925 62.2001C160.112 61.9334 159.051 61.6958 158.25 61.1161C157.546 60.5829 157.045 59.8931 157.045 58.6353C157.045 57.6905 157.448 56.8616 158.25 56.2936C158.936 55.7893 159.951 55.4937 161.237 55.4937C163.047 55.4937 164.131 55.9805 164.8 56.3283C164.939 56.4095 164.973 56.5486 164.91 56.6877L164.016 58.5599C163.935 58.6991 163.814 58.7512 163.67 58.6701C162.984 58.2933 162.125 57.8818 161.075 57.8818C160.729 57.8818 160.464 57.9455 160.291 58.0209C160.055 58.1484 159.945 58.3223 159.945 58.5078C159.945 58.9947 160.476 59.2149 161.214 59.4352C162.09 59.7018 163.261 59.9395 164.091 60.5829C164.777 61.0988 165.25 61.8581 165.25 63.0348C165.25 64.1013 164.783 64.9534 164.033 65.5504C163.266 66.1648 162.188 66.4952 160.983 66.4952C159.219 66.4952 157.904 65.9909 157.073 65.504H157.079Z" fill="black" fill-opacity="0.6"/>
<path d="M70.4381 66.0201C70.3747 66.2404 70.219 66.3331 69.971 66.3331H67.8145C67.6242 66.3331 67.5665 66.2404 67.5665 66.1128C67.5665 66.0491 67.5838 66.0027 67.5954 65.939L71.0205 55.8648C71.0839 55.662 71.2223 55.5808 71.4587 55.5808H73.771C74.0074 55.5808 74.1458 55.662 74.2092 55.8648L77.5709 65.939C77.5882 66.0027 77.5998 66.0491 77.5998 66.1128C77.5998 66.2404 77.5363 66.3331 77.3518 66.3331H75.1318C74.8839 66.3331 74.7282 66.2404 74.6648 66.0201L74.1977 64.4029H70.9282L70.4439 66.0201H70.4381ZM72.5831 58.9369L71.5971 62.1887H73.5346L72.5831 58.9369Z" fill="black"/>
<path d="M80.7883 55.6335C80.944 55.6335 81.0709 55.7611 81.0709 55.9176V63.8818H85.1822C85.3379 63.8818 85.4647 64.0093 85.4647 64.1658V66.0497C85.4647 66.2062 85.3379 66.3337 85.1822 66.3337H78.6029C78.4472 66.3337 78.3204 66.2062 78.3204 66.0497V55.9176C78.3204 55.7611 78.4472 55.6335 78.6029 55.6335H80.7941H80.7883Z" fill="black"/>
<path d="M91.1263 58.0854H86.9516C86.7959 58.0854 86.669 57.9579 86.669 57.8014V55.9176C86.669 55.7611 86.7959 55.6335 86.9516 55.6335H95.4221C95.6124 55.6335 95.6874 55.7437 95.6874 55.8712C95.6874 55.935 95.6701 55.9813 95.6412 56.0277L90.7976 63.8818H95.4856C95.6412 63.8818 95.7681 64.0093 95.7681 64.1658V66.0497C95.7681 66.2062 95.6412 66.3337 95.4856 66.3337H86.496C86.3057 66.3337 86.2308 66.2235 86.2308 66.096C86.2308 66.0323 86.2481 65.9859 86.2769 65.9395L91.1205 58.0854H91.1263Z" fill="black"/>
<path d="M106.362 55.6335C106.517 55.6335 106.644 55.7611 106.644 55.9176V66.0554C106.644 66.212 106.517 66.3395 106.362 66.3395H104.171C104.015 66.3395 103.888 66.212 103.888 66.0554V62.1719H99.8228V66.0554C99.8228 66.212 99.696 66.3395 99.5403 66.3395H97.3491C97.1934 66.3395 97.0666 66.212 97.0666 66.0554V55.9176C97.0666 55.7611 97.1934 55.6335 97.3491 55.6335H99.5403C99.696 55.6335 99.8228 55.7611 99.8228 55.9176V59.72H103.888V55.9176C103.888 55.7611 104.015 55.6335 104.171 55.6335H106.362Z" fill="black" fill-opacity="0.6"/>
<path d="M115.973 55.6335C116.129 55.6335 116.256 55.7611 116.256 55.9176V57.8014C116.256 57.9579 116.129 58.0854 115.973 58.0854H110.784V59.72H115.143C115.299 59.72 115.426 59.8475 115.426 60.004V61.8878C115.426 62.0443 115.299 62.1719 115.143 62.1719H110.784V63.8818H115.973C116.129 63.8818 116.256 64.0093 116.256 64.1658V66.0497C116.256 66.2062 116.129 66.3337 115.973 66.3337H108.316C108.16 66.3337 108.033 66.2062 108.033 66.0497V55.9176C108.033 55.7611 108.16 55.6335 108.316 55.6335H115.973Z" fill="black" fill-opacity="0.6"/>
<path d="M120.004 55.6335C120.159 55.6335 120.286 55.7611 120.286 55.9176V66.0554C120.286 66.212 120.159 66.3395 120.004 66.3395H117.813C117.657 66.3395 117.53 66.212 117.53 66.0554V55.9176C117.53 55.7611 117.657 55.6335 117.813 55.6335H120.004Z" fill="black" fill-opacity="0.6"/>
<path d="M133.139 66.0554C133.139 66.212 133.012 66.3395 132.856 66.3395H130.763C130.607 66.3395 130.481 66.212 130.481 66.0554V60.4445L128.837 63.5108C128.728 63.7021 128.635 63.7949 128.399 63.7949H126.79C126.554 63.7949 126.462 63.7021 126.352 63.5108L124.616 60.4445V66.0554C124.616 66.212 124.49 66.3395 124.334 66.3395H122.241C122.085 66.3395 121.958 66.212 121.958 66.0554V55.9176C121.958 55.7611 122.085 55.6335 122.241 55.6335H124.443C124.663 55.6335 124.801 55.6625 124.945 55.9176L127.54 60.601L130.135 55.9176C130.273 55.6683 130.417 55.6335 130.636 55.6335H132.856C133.012 55.6335 133.139 55.7611 133.139 55.9176V66.0554Z" fill="black" fill-opacity="0.6"/>
<path d="M142.181 55.6335C142.337 55.6335 142.464 55.7611 142.464 55.9176V57.8014C142.464 57.9579 142.337 58.0854 142.181 58.0854H136.992V59.72H141.351C141.507 59.72 141.634 59.8475 141.634 60.004V61.8878C141.634 62.0443 141.507 62.1719 141.351 62.1719H136.992V63.8818H142.181C142.337 63.8818 142.464 64.0093 142.464 64.1658V66.0497C142.464 66.2062 142.337 66.3337 142.181 66.3337H134.524C134.368 66.3337 134.241 66.2062 134.241 66.0497V55.9176C134.241 55.7611 134.368 55.6335 134.524 55.6335H142.181Z" fill="black" fill-opacity="0.6"/>
<path d="M150.904 62.3284L152.934 65.8468C153.061 66.067 153.089 66.3337 152.778 66.3337H150.374C150.126 66.3337 149.97 66.2873 149.843 66.0497L148.171 62.8443H146.499V66.0497C146.499 66.2062 146.372 66.3337 146.216 66.3337H144.025C143.869 66.3337 143.742 66.2062 143.742 66.0497V55.9176C143.742 55.7611 143.869 55.6335 144.025 55.6335H148.759C149.808 55.6335 150.789 55.8538 151.492 56.4045C152.288 57.0305 152.726 58.0854 152.726 59.2157C152.726 60.1605 152.398 61.0995 151.556 61.8531C151.337 62.0444 151.117 62.2009 150.898 62.3226L150.904 62.3284ZM146.499 57.9753V60.5199H148.344C148.828 60.5199 149.203 60.4561 149.451 60.2822C149.751 60.091 149.935 59.7316 149.935 59.2447C149.935 58.7578 149.78 58.4448 149.497 58.2361C149.249 58.0448 148.903 57.9695 148.575 57.9695H146.493L146.499 57.9753Z" fill="black" fill-opacity="0.6"/>
<path d="M74.3819 69.6371C74.3819 69.4805 74.5088 69.353 74.6645 69.353H76.7288C76.8845 69.353 77.0113 69.4805 77.0113 69.6371V79.7749C77.0113 79.9314 76.8845 80.059 76.7288 80.059H74.8201C74.601 80.059 74.4742 80.0126 74.3185 79.7749L70.0053 73.9785V79.7749C70.0053 79.9314 69.8785 80.059 69.7228 80.059H67.6585C67.5028 80.059 67.3759 79.9314 67.3759 79.7749V69.6371C67.3759 69.4805 67.5028 69.353 67.6585 69.353H69.5786C69.7978 69.353 69.9073 69.4168 70.0803 69.6371L74.3819 75.4334V69.6371Z" fill="black"/>
<path d="M85.9023 69.3535C86.058 69.3535 86.1848 69.481 86.1848 69.6375V71.5213C86.1848 71.6778 86.058 71.8053 85.9023 71.8053H80.7127V73.4399H85.0719C85.2276 73.4399 85.3545 73.5674 85.3545 73.7239V75.6078C85.3545 75.7643 85.2276 75.8918 85.0719 75.8918H80.7127V77.6017H85.9023C86.058 77.6017 86.1848 77.7292 86.1848 77.8857V79.7696C86.1848 79.9261 86.058 80.0536 85.9023 80.0536H78.2447C78.089 80.0536 77.9622 79.9261 77.9622 79.7696V69.6317C77.9622 69.4752 78.089 69.3477 78.2447 69.3477H85.9023V69.3535Z" fill="black"/>
<path d="M95.9575 69.353C96.1131 69.353 96.24 69.4805 96.24 69.6371V71.5209C96.24 71.6774 96.1131 71.8049 95.9575 71.8049H92.9533V79.7691C92.9533 79.9256 92.8264 80.0532 92.6707 80.0532H90.4795C90.3239 80.0532 90.197 79.9256 90.197 79.7691V71.8049H87.1928C87.0371 71.8049 86.9102 71.6774 86.9102 71.5209V69.6371C86.9102 69.4805 87.0371 69.353 87.1928 69.353H95.9459H95.9575Z" fill="black"/>
<path d="M110.351 69.666C110.415 69.4458 110.571 69.353 110.818 69.353H113.085C113.367 69.353 113.35 69.5907 113.304 69.7472L110.288 79.8213C110.225 80.0242 110.086 80.1053 109.85 80.1053H107.411C107.174 80.1053 107.036 80.0242 106.972 79.8213L105.219 74.5234H105.191L103.582 79.8213C103.518 80.0242 103.38 80.1053 103.144 80.1053H100.687C100.451 80.1053 100.312 80.0242 100.249 79.8213L97.1237 69.7472C97.0776 69.5907 97.0603 69.353 97.3428 69.353H99.609C99.8569 69.353 100.018 69.4458 100.076 69.666L101.904 76.6101H101.933L103.905 69.666C103.968 69.4458 104.124 69.353 104.372 69.353H106.027C106.275 69.353 106.419 69.4458 106.494 69.666L108.604 76.6101H108.633L110.34 69.666H110.351Z" fill="black" fill-opacity="0.6"/>
<path d="M118.747 80.2103C115.651 80.2103 112.981 78.0424 112.981 74.7269C112.981 71.4114 115.657 69.2087 118.747 69.2087C121.838 69.2087 124.502 71.3766 124.502 74.7269C124.502 78.0772 121.827 80.2103 118.747 80.2103ZM118.747 71.8055C117.093 71.8055 115.905 73.0286 115.905 74.7269C115.905 76.4252 117.093 77.6367 118.747 77.6367C120.402 77.6367 121.579 76.4252 121.579 74.7269C121.579 73.0286 120.408 71.8055 118.747 71.8055Z" fill="black" fill-opacity="0.6"/>
<path d="M132.471 76.0483L134.501 79.5667C134.628 79.787 134.657 80.0536 134.345 80.0536H131.941C131.693 80.0536 131.537 80.0072 131.41 79.7696L129.738 76.5642H128.066V79.7696C128.066 79.9261 127.939 80.0536 127.783 80.0536H125.592C125.436 80.0536 125.31 79.9261 125.31 79.7696V69.6317C125.31 69.4752 125.436 69.3477 125.592 69.3477H130.326C131.376 69.3477 132.356 69.5679 133.059 70.1186C133.855 70.7446 134.293 71.7995 134.293 72.9298C134.293 73.8746 133.965 74.8136 133.123 75.5672C132.904 75.7585 132.685 75.915 132.465 76.0367L132.471 76.0483ZM128.066 71.6952V74.2398H129.911C130.395 74.2398 130.77 74.176 131.018 74.0022C131.318 73.8109 131.502 73.4515 131.502 72.9646C131.502 72.4777 131.347 72.1647 131.064 71.956C130.816 71.7648 130.47 71.6894 130.142 71.6894H128.06L128.066 71.6952Z" fill="black" fill-opacity="0.6"/>
<path d="M138.882 76.0015L138.179 76.755V79.7749C138.179 79.9314 138.052 80.059 137.896 80.059H135.705C135.549 80.059 135.423 79.9314 135.423 79.7749V69.6371C135.423 69.4805 135.549 69.353 135.705 69.353H137.896C138.052 69.353 138.179 69.4805 138.179 69.6371V73.2192L141.241 69.6371C141.414 69.4342 141.587 69.353 141.817 69.353H144.602C144.85 69.353 144.931 69.5733 144.741 69.7762L140.82 73.9554L144.793 79.5663C144.948 79.7691 144.983 80.0532 144.654 80.0532H142.077C141.829 80.0532 141.685 79.972 141.546 79.7691L138.888 75.9957L138.882 76.0015Z" fill="black" fill-opacity="0.6"/>
<path d="M43.359 81.4739C40.5047 78.9757 38.6999 75.3008 38.6999 71.1969C38.6999 64.9137 42.9323 59.6332 48.6812 58.0565C47.5453 57.7435 46.3459 57.5754 45.1119 57.5754C42.4537 57.5754 39.98 58.3464 37.8926 59.6737C35.9263 62.0908 34.75 65.1687 34.75 68.5306C34.75 74.3676 38.3078 79.3757 43.359 81.4739Z" fill="black" fill-opacity="0.8"/>
<path d="M59.4751 59.6736C56.9207 56.5319 53.0342 54.5264 48.6807 54.5264C44.3272 54.5264 40.4408 56.5319 37.8864 59.6736C39.9795 58.3462 42.4532 57.5753 45.1057 57.5753C46.3396 57.5753 47.539 57.7434 48.675 58.0564C54.4239 59.633 58.6563 64.9135 58.6563 71.1968C58.6563 75.3006 56.8515 78.9755 53.9972 81.4738C59.0484 79.3697 62.6062 74.3674 62.6062 68.5304C62.6062 65.1685 61.4298 62.0907 59.4693 59.6736H59.4751Z" fill="black" fill-opacity="0.6"/>
<path d="M48.6803 58.0564C42.9314 59.633 38.699 64.9193 38.699 71.1968C38.699 75.2949 40.5038 78.9698 43.3581 81.468L46.8466 73.0285C45.0822 72.3039 43.8424 70.5592 43.8424 68.5305C43.8424 65.8467 46.0105 63.6673 48.6803 63.6673C51.3501 63.6673 53.5182 65.8467 53.5182 68.5305C53.5182 70.5592 52.2842 72.2923 50.5255 73.0227L53.9968 81.4738C56.851 78.9756 58.6559 75.3006 58.6559 71.1968C58.6559 64.9135 54.4235 59.633 48.6745 58.0564H48.6803Z" fill="black"/>
<path d="M153.947 60.8114C153.745 60.8578 153.635 60.8288 153.537 60.7013L153.29 60.3071C153.18 60.1333 153.226 60.0057 153.37 59.913C153.745 59.6637 154.374 59.287 154.374 58.7363C154.374 58.0002 153.215 58.1857 153.215 56.8989C153.215 56.0352 153.826 55.4556 154.76 55.4556C155.965 55.4556 156.542 56.2729 156.57 57.5481C156.599 58.9914 155.337 60.4578 153.947 60.8172V60.8114Z" fill="black" fill-opacity="0.6"/>
</svg>
