<svg width="200" height="136" viewBox="0 0 200 136" fill="none" xmlns="http://www.w3.org/2000/svg">
<rect width="200" height="136" fill="#0E2A65"/>
<rect width="200" height="136" fill="#0E2A65"/>
<path d="M41.0222 71.6103H35.648L34.6375 74.3399H31.56L36.5667 61.6605H40.2413L45.248 74.2959H41.9868L40.9762 71.5663L41.0222 71.6103ZM40.1495 69.277L38.3121 64.302L36.4748 69.277H40.1495Z" fill="#00FF00"/>
<path d="M45.3858 67.956C45.3858 63.8176 48.647 61.4402 52.0001 61.4402C55.3532 61.4402 57.7417 63.2452 58.1092 66.0189H55.0317C54.6642 64.7421 53.5618 63.9496 51.9542 63.9496C50.3465 63.9496 48.5092 65.4905 48.5092 67.956C48.5092 70.4214 50.0709 72.0504 51.9542 72.0504C53.8374 72.0504 54.5724 71.2579 55.0317 69.9812H58.1092C57.6499 72.7548 55.1695 74.5598 51.9542 74.5598C48.7389 74.5598 45.3398 72.1384 45.3398 67.956H45.3858Z" fill="#00FF00"/>
<path d="M63.024 74.3397H59.9925V61.6603H66.1015C69.4546 61.6603 70.8326 63.4654 70.8326 65.6226C70.8326 67.7799 69.6843 68.7485 68.2144 69.2328C68.3522 69.5409 68.49 69.673 68.6738 70.0252L71.2001 74.2517H67.7092L65.2747 69.9372C65.1369 69.717 65.091 69.673 64.8154 69.673H63.024V74.3397ZM63.024 67.3837H65.7341C67.1121 67.3837 67.8011 66.7233 67.8011 65.7107C67.8011 64.6981 67.0661 63.9937 65.7341 63.9937H63.024V67.3837Z" fill="#00FF00"/>
<path d="M85.8068 71.6102H80.4326L79.4221 74.3398H76.3446L81.3513 61.7044H85.0259L90.0326 74.3398H86.7714L85.7609 71.6102H85.8068ZM84.9341 69.2769L83.0967 64.3019L81.2594 69.2769H84.9341Z" fill="white"/>
<path d="M90.7216 71.346H93.3857C93.5235 72.2265 94.3044 72.6228 95.3608 72.6228C96.4173 72.6228 96.9225 72.3146 96.9225 71.6982C96.9225 71.0819 96.3713 70.8617 95.1312 70.6856L94.1206 70.5095C92.1455 70.1573 90.8594 69.3208 90.8594 67.824C90.8594 66.3271 92.6967 64.7422 95.0393 64.7422C97.3819 64.7422 99.1273 65.8428 99.4029 67.7359H96.7847C96.601 67.0315 95.958 66.6353 94.9934 66.6353C94.0288 66.6353 93.5235 66.9875 93.5235 67.5598C93.5235 68.1322 94.0288 68.2642 95.0852 68.4403L96.0958 68.6164C98.3005 69.0127 99.6326 69.8051 99.6326 71.4341C99.6326 73.063 97.6115 74.5599 95.269 74.5599C92.9264 74.5599 90.9972 73.5473 90.6757 71.3901L90.7216 71.346Z" fill="white"/>
<path d="M100.873 71.346H103.537C103.675 72.2265 104.456 72.6228 105.512 72.6228C106.568 72.6228 107.074 72.3146 107.074 71.6982C107.074 71.0819 106.522 70.8617 105.282 70.6856L104.272 70.5095C102.297 70.1573 101.011 69.3208 101.011 67.824C101.011 66.3271 102.848 64.7422 105.19 64.7422C107.533 64.7422 109.278 65.8428 109.554 67.7359H106.936C106.752 67.0315 106.109 66.6353 105.144 66.6353C104.18 66.6353 103.675 66.9875 103.675 67.5598C103.675 68.1322 104.18 68.2642 105.236 68.4403L106.247 68.6164C108.452 69.0127 109.784 69.8051 109.784 71.4341C109.784 73.063 107.763 74.5599 105.42 74.5599C103.078 74.5599 101.148 73.5473 100.827 71.3901L100.873 71.346Z" fill="white"/>
<path d="M116.122 74.5159C113.321 74.5159 110.932 72.6668 110.932 69.585C110.932 66.5032 113.366 64.7422 116.076 64.7422C118.787 64.7422 121.129 66.5032 121.129 69.8051V70.3775H113.826C113.964 71.7423 114.974 72.5347 116.26 72.5347C117.546 72.5347 117.914 72.2706 118.327 71.5221H121.083C120.486 73.6354 118.327 74.5599 116.168 74.5599L116.122 74.5159ZM113.78 68.6164H118.235C118.143 67.4718 117.271 66.7233 116.031 66.7233C114.79 66.7233 113.918 67.4277 113.78 68.6164Z" fill="white"/>
<path d="M122.231 71.346H124.896C125.033 72.2265 125.814 72.6228 126.871 72.6228C127.927 72.6228 128.432 72.3146 128.432 71.6982C128.432 71.0819 127.881 70.8617 126.641 70.6856L125.631 70.5095C123.655 70.1573 122.369 69.3208 122.369 67.824C122.369 66.3271 124.207 64.7422 126.549 64.7422C128.892 64.7422 130.637 65.8428 130.913 67.7359H128.295C128.111 67.0315 127.468 66.6353 126.503 66.6353C125.539 66.6353 125.033 66.9875 125.033 67.5598C125.033 68.1322 125.539 68.2642 126.595 68.4403L127.606 68.6164C129.81 69.0127 131.142 69.8051 131.142 71.4341C131.142 73.063 129.121 74.5599 126.779 74.5599C124.436 74.5599 122.507 73.5473 122.186 71.3901L122.231 71.346Z" fill="white"/>
<path d="M132.383 71.346H135.047C135.185 72.2265 135.966 72.6228 137.022 72.6228C138.078 72.6228 138.584 72.3146 138.584 71.6982C138.584 71.0819 138.033 70.8617 136.792 70.6856L135.782 70.5095C133.807 70.1573 132.521 69.3208 132.521 67.824C132.521 66.3271 134.358 64.7422 136.7 64.7422C139.043 64.7422 140.788 65.8428 141.064 67.7359H138.446C138.262 67.0315 137.619 66.6353 136.655 66.6353C135.69 66.6353 135.185 66.9875 135.185 67.5598C135.185 68.1322 135.69 68.2642 136.746 68.4403L137.757 68.6164C139.962 69.0127 141.294 69.8051 141.294 71.4341C141.294 73.063 139.273 74.5599 136.93 74.5599C134.588 74.5599 132.658 73.5473 132.337 71.3901L132.383 71.346Z" fill="white"/>
<path d="M142.993 67.912H149.194V70.4215H142.993V67.912Z" fill="white"/>
<path d="M159.759 71.6102H154.384L153.374 74.3398H150.296L155.303 61.7044H158.978L163.984 74.3398H160.723L159.713 71.6102H159.759ZM158.886 69.2769L157.049 64.3019L155.211 69.2769H158.886Z" fill="white"/>
<path d="M165.363 61.6604H168.44V74.2958H165.363V61.6604Z" fill="white"/>
</svg>
