<svg width="200" height="136" viewBox="0 0 200 136" fill="none" xmlns="http://www.w3.org/2000/svg">
<rect width="200" height="136" fill="white"/>
<rect width="200" height="136" fill="white"/>
<path d="M41.0218 71.6096H35.6476L34.6371 74.3392H31.5596L36.5663 61.6598H40.2409L45.2476 74.2952H41.9863L40.9758 71.5656L41.0218 71.6096ZM40.149 69.2762L38.3117 64.3013L36.4744 69.2762H40.149Z" fill="#0E2A65"/>
<path d="M45.3854 67.9553C45.3854 63.8168 48.6466 61.4395 51.9997 61.4395C55.3528 61.4395 57.7413 63.2445 58.1088 66.0181H55.0313C54.6638 64.7414 53.5614 63.9489 51.9538 63.9489C50.3461 63.9489 48.5088 65.4898 48.5088 67.9553C48.5088 70.4207 50.0705 72.0496 51.9538 72.0496C53.837 72.0496 54.5719 71.2572 55.0313 69.9804H58.1088C57.6494 72.7541 55.1691 74.5591 51.9538 74.5591C48.7385 74.5591 45.3394 72.1377 45.3394 67.9553H45.3854Z" fill="#0E2A65"/>
<path d="M63.0236 74.339H59.992V61.6596H66.1011C69.4542 61.6596 70.8322 63.4647 70.8322 65.6219C70.8322 67.7792 69.6839 68.7477 68.214 69.232C68.3518 69.5402 68.4896 69.6723 68.6734 70.0245L71.1997 74.251H67.7088L65.2743 69.9364C65.1365 69.7163 65.0906 69.6723 64.815 69.6723H63.0236V74.339ZM63.0236 67.3829H65.7336C67.1116 67.3829 67.8006 66.7226 67.8006 65.71C67.8006 64.6974 67.0657 63.993 65.7336 63.993H63.0236V67.3829Z" fill="#0E2A65"/>
<path d="M85.8063 71.6094H80.4322L79.4217 74.339H76.3442L81.3509 61.7036H85.0255L90.0322 74.339H86.7709L85.7604 71.6094H85.8063ZM84.9336 69.276L83.0963 64.3011L81.259 69.276H84.9336Z" fill="#0E2A65"/>
<path d="M90.7212 71.3452H93.3853C93.5231 72.2257 94.3039 72.622 95.3604 72.622C96.4168 72.622 96.9221 72.3138 96.9221 71.6974C96.9221 71.0811 96.3709 70.8609 95.1307 70.6848L94.1202 70.5087C92.1451 70.1565 90.859 69.32 90.859 67.8232C90.859 66.3263 92.6963 64.7414 95.0389 64.7414C97.3814 64.7414 99.1269 65.842 99.4025 67.7351H96.7843C96.6006 67.0307 95.9575 66.6345 94.9929 66.6345C94.0283 66.6345 93.5231 66.9867 93.5231 67.559C93.5231 68.1313 94.0283 68.2634 95.0848 68.4395L96.0953 68.6156C98.3001 69.0119 99.6321 69.8043 99.6321 71.4333C99.6321 73.0622 97.6111 74.5591 95.2685 74.5591C92.9259 74.5591 90.9968 73.5465 90.6752 71.3892L90.7212 71.3452Z" fill="#0E2A65"/>
<path d="M100.872 71.3452H103.536C103.674 72.2257 104.455 72.622 105.512 72.622C106.568 72.622 107.073 72.3138 107.073 71.6974C107.073 71.0811 106.522 70.8609 105.282 70.6848L104.271 70.5087C102.296 70.1565 101.01 69.32 101.01 67.8232C101.01 66.3263 102.847 64.7414 105.19 64.7414C107.533 64.7414 109.278 65.842 109.554 67.7351H106.935C106.752 67.0307 106.109 66.6345 105.144 66.6345C104.179 66.6345 103.674 66.9867 103.674 67.559C103.674 68.1313 104.179 68.2634 105.236 68.4395L106.246 68.6156C108.451 69.0119 109.783 69.8043 109.783 71.4333C109.783 73.0622 107.762 74.5591 105.42 74.5591C103.077 74.5591 101.148 73.5465 100.826 71.3892L100.872 71.3452Z" fill="#0E2A65"/>
<path d="M116.122 74.5151C113.32 74.5151 110.932 72.666 110.932 69.5842C110.932 66.5024 113.366 64.7414 116.076 64.7414C118.786 64.7414 121.129 66.5024 121.129 69.8043V70.3767H113.825C113.963 71.7415 114.974 72.5339 116.26 72.5339C117.546 72.5339 117.913 72.2698 118.327 71.5213H121.083C120.486 73.6346 118.327 74.5591 116.168 74.5591L116.122 74.5151ZM113.779 68.6156H118.235C118.143 67.471 117.27 66.7225 116.03 66.7225C114.79 66.7225 113.917 67.4269 113.779 68.6156Z" fill="#0E2A65"/>
<path d="M122.231 71.3452H124.895C125.033 72.2257 125.814 72.622 126.87 72.622C127.927 72.622 128.432 72.3138 128.432 71.6974C128.432 71.0811 127.881 70.8609 126.641 70.6848L125.63 70.5087C123.655 70.1565 122.369 69.32 122.369 67.8232C122.369 66.3263 124.206 64.7414 126.549 64.7414C128.891 64.7414 130.637 65.842 130.912 67.7351H128.294C128.11 67.0307 127.467 66.6345 126.503 66.6345C125.538 66.6345 125.033 66.9867 125.033 67.559C125.033 68.1313 125.538 68.2634 126.595 68.4395L127.605 68.6156C129.81 69.0119 131.142 69.8043 131.142 71.4333C131.142 73.0622 129.121 74.5591 126.778 74.5591C124.436 74.5591 122.507 73.5465 122.185 71.3892L122.231 71.3452Z" fill="#0E2A65"/>
<path d="M132.382 71.3452H135.046C135.184 72.2257 135.965 72.622 137.022 72.622C138.078 72.622 138.583 72.3138 138.583 71.6974C138.583 71.0811 138.032 70.8609 136.792 70.6848L135.781 70.5087C133.806 70.1565 132.52 69.32 132.52 67.8232C132.52 66.3263 134.357 64.7414 136.7 64.7414C139.043 64.7414 140.788 65.842 141.064 67.7351H138.445C138.262 67.0307 137.619 66.6345 136.654 66.6345C135.689 66.6345 135.184 66.9867 135.184 67.559C135.184 68.1313 135.689 68.2634 136.746 68.4395L137.756 68.6156C139.961 69.0119 141.293 69.8043 141.293 71.4333C141.293 73.0622 139.272 74.5591 136.93 74.5591C134.587 74.5591 132.658 73.5465 132.336 71.3892L132.382 71.3452Z" fill="#0E2A65"/>
<path d="M142.993 67.9112H149.194V70.4207H142.993V67.9112Z" fill="#0E2A65"/>
<path d="M159.758 71.6094H154.384L153.374 74.339H150.296L155.303 61.7036H158.977L163.984 74.339H160.723L159.712 71.6094H159.758ZM158.885 69.276L157.048 64.3011L155.211 69.276H158.885Z" fill="#0E2A65"/>
<path d="M165.362 61.6596H168.44V74.295H165.362V61.6596Z" fill="#0E2A65"/>
</svg>
