<svg width="200" height="136" viewBox="0 0 200 136" fill="none" xmlns="http://www.w3.org/2000/svg">
<rect width="200" height="136" fill="#0E2A65"/>
<rect width="200" height="136" fill="#0E2A65"/>
<path d="M32.1429 50.5V85.5H67.8117V50.5H32.1429ZM58.5622 79.3129H41.3923V76.4415H58.5622V79.3129ZM57.9424 65.7982C58.3536 66.2135 58.5622 66.8041 58.5622 67.5819V73.0205H55.1831V68.4942C55.1831 67.8567 55.046 67.424 54.7778 67.2018C54.5096 66.9737 54.0507 66.8626 53.4011 66.8626H44.7655V73.0205H41.3864V56.6871H53.0376C54.2235 56.6871 55.2665 56.8801 56.1545 57.2719C57.0425 57.6637 57.7338 58.1959 58.2225 58.8684C58.7112 59.5468 58.9615 60.3187 58.9615 61.1901C58.9615 61.8567 58.8244 62.4649 58.5443 63.0088C58.2642 63.5526 57.8947 64.0088 57.4239 64.3713C56.959 64.7339 56.4286 65.0029 55.8446 65.1784C56.8279 65.1784 57.5252 65.383 57.9364 65.7982H57.9424Z" fill="white"/>
<path d="M54.7718 60.1433C54.2593 59.769 53.5322 59.5819 52.5965 59.5819H44.7715V63.9678H52.5965C53.5322 63.9678 54.2593 63.7632 54.7718 63.3596C55.2844 62.9561 55.5466 62.4181 55.5466 61.7515C55.5466 61.0848 55.2903 60.5117 54.7718 60.1433Z" fill="white"/>
<path d="M79.7247 62.8216H76.5899L76.0058 64.4357H74.206L77.1322 56.9035H79.2598L82.186 64.4357H80.3028L79.7187 62.8216H79.7247ZM79.2241 61.4357L78.1573 58.4766L77.0964 61.4357H79.2241Z" fill="#E9EEF3"/>
<path d="M84.5699 64.4357H82.9012V58.8626H84.5103V59.5175C84.8619 59.0146 85.4639 58.7339 86.1969 58.7339C86.8644 58.7339 87.5259 59.0029 87.9073 59.6404C88.2828 59.0497 88.9622 58.7339 89.7608 58.7339C90.8812 58.7339 91.8527 59.3363 91.8527 60.9094V64.4415H90.1839V61.2135C90.1839 60.4942 89.7787 60.1374 89.2304 60.1374C88.6821 60.1374 88.2113 60.5468 88.2113 61.4064V64.4415H86.5426V61.2135C86.5426 60.4942 86.1373 60.1374 85.589 60.1374C85.0407 60.1374 84.558 60.5351 84.558 61.4064V64.4415L84.5699 64.4357Z" fill="white"/>
<path d="M95.8218 64.5643C94.1769 64.5643 92.7943 63.4532 92.7943 61.617C92.7943 59.7807 94.2187 58.7222 95.7861 58.7222C97.3535 58.7222 98.7242 59.7749 98.7242 61.7339V62.0673H94.457C94.5464 62.8743 95.1245 63.3596 95.8695 63.3596C96.3522 63.3596 96.835 63.1959 97.0674 62.7573H98.6706C98.3189 64.0029 97.0674 64.5643 95.8218 64.5643ZM94.4511 61.0322H97.0495C96.9959 60.3538 96.4774 59.9152 95.7682 59.9152C95.059 59.9152 94.5405 60.3246 94.4511 61.0322Z" fill="white"/>
<path d="M101.4 64.4357H99.7314V58.8626H101.34V59.693C101.442 59.5234 101.573 59.3596 101.734 59.2193C102.062 58.962 102.383 58.8216 102.92 58.8216C103.063 58.8216 103.23 58.8333 103.325 58.8567V60.3655C103.063 60.3304 102.932 60.3304 102.765 60.3304C102.139 60.3304 101.394 60.5585 101.394 61.6111V64.4415L101.4 64.4357Z" fill="white"/>
<path d="M104.13 56.6871H105.81V58.0439H104.13V56.6871ZM104.13 58.8626H105.798V64.4357H104.13V58.8626Z" fill="white"/>
<path d="M106.806 61.617C106.806 59.8743 108.188 58.7222 109.821 58.7222C111.299 58.7222 112.461 59.5819 112.64 60.9152H110.995C110.864 60.3889 110.393 60.0556 109.821 60.0556C109.052 60.0556 108.516 60.693 108.516 61.617C108.516 62.5409 109.064 63.231 109.821 63.231C110.381 63.231 110.828 62.9211 110.983 62.3596H112.64C112.42 63.7398 111.246 64.5643 109.809 64.5643C108.141 64.5643 106.806 63.4123 106.806 61.617Z" fill="white"/>
<path d="M117.187 63.7982C116.812 64.2485 116.234 64.5526 115.411 64.5526C114.339 64.5526 113.308 63.9503 113.308 62.8099C113.308 61.6696 114.261 61.2368 115.763 61.0029L117.068 60.7982V60.7222C117.068 60.1199 116.728 59.8801 116.138 59.8801C115.548 59.8801 115.161 60.1608 115.066 60.6754H113.51C113.695 59.4591 114.78 58.7164 116.216 58.7164C117.754 58.7164 118.719 59.307 118.707 60.8801L118.695 63.2485C118.695 63.4298 118.707 63.7515 118.737 64.4298H117.211L117.187 63.7924V63.7982ZM115.84 63.3889C116.508 63.3889 117.068 63.0029 117.068 62.2251V61.8509C115.566 62.0322 114.917 62.1959 114.917 62.7339C114.917 63.1667 115.31 63.3889 115.84 63.3889Z" fill="white"/>
<path d="M121.651 64.4357H119.982V58.8626H121.592V59.5409C121.955 59.0263 122.581 58.7339 123.314 58.7339C124.554 58.7339 125.388 59.4649 125.388 60.962V64.4357H123.719V61.2485C123.719 60.5409 123.344 60.1316 122.724 60.1316C122.146 60.1316 121.651 60.5526 121.651 61.4649V64.4357Z" fill="white"/>
<path d="M129.005 60.6345C129.005 58.1725 130.889 56.7398 132.867 56.7398C134.733 56.7398 136.199 57.8275 136.431 59.4708H134.643C134.435 58.7164 133.779 58.231 132.855 58.231C131.735 58.231 130.847 59.155 130.847 60.6287C130.847 62.1023 131.747 63.0614 132.867 63.0614C133.767 63.0614 134.405 62.5994 134.655 61.8216H136.443C136.169 63.4766 134.721 64.5526 132.855 64.5526C130.829 64.5526 129.005 63.1023 129.005 60.6228V60.6345Z" fill="#E9EEF3"/>
<path d="M137.087 61.617C137.087 59.8392 138.481 58.7222 140.168 58.7222C141.855 58.7222 143.249 59.8275 143.249 61.617C143.249 63.4064 141.878 64.5643 140.168 64.5643C138.458 64.5643 137.087 63.424 137.087 61.617ZM141.539 61.617C141.539 60.6813 140.978 60.0556 140.168 60.0556C139.357 60.0556 138.797 60.6813 138.797 61.617C138.797 62.5526 139.357 63.231 140.168 63.231C140.978 63.231 141.539 62.6053 141.539 61.617Z" fill="#E9EEF3"/>
<path d="M144.25 56.6871H145.919V64.4357H144.25V56.6871Z" fill="#E9EEF3"/>
<path d="M147.266 56.6871H148.935V64.4357H147.266V56.6871Z" fill="#E9EEF3"/>
<path d="M152.963 64.5643C151.319 64.5643 149.936 63.4532 149.936 61.617C149.936 59.7807 151.36 58.7222 152.928 58.7222C154.495 58.7222 155.866 59.7749 155.866 61.7339V62.0673H151.599C151.688 62.8743 152.266 63.3596 153.011 63.3596C153.494 63.3596 153.977 63.1959 154.209 62.7573H155.812C155.461 64.0029 154.209 64.5643 152.963 64.5643ZM151.593 61.0322H154.191C154.137 60.3538 153.619 59.9152 152.91 59.9152C152.201 59.9152 151.682 60.3246 151.593 61.0322Z" fill="#E9EEF3"/>
<path d="M159.585 66.5994C157.94 66.5994 156.933 65.8567 156.742 64.6754H158.363C158.482 65.1608 158.911 65.4298 159.591 65.4298C160.27 65.4298 160.753 65.0848 160.753 64.3129V63.5058C160.425 64.0029 159.853 64.2895 159.084 64.2895C157.713 64.2895 156.575 63.2895 156.575 61.4942C156.575 59.6988 157.761 58.7398 159.108 58.7398C159.901 58.7398 160.455 59.0497 160.788 59.5994V58.8684H162.41V64.2076C162.41 65.8626 161.158 66.6053 159.579 66.6053L159.585 66.5994ZM160.771 61.4883C160.771 60.5643 160.222 60.0146 159.531 60.0146C158.84 60.0146 158.291 60.5877 158.291 61.4883C158.291 62.4474 158.816 63.0029 159.531 63.0029C160.246 63.0029 160.771 62.4357 160.771 61.4883Z" fill="#E9EEF3"/>
<path d="M166.438 64.5643C164.793 64.5643 163.411 63.4532 163.411 61.617C163.411 59.7807 164.835 58.7222 166.403 58.7222C167.97 58.7222 169.341 59.7749 169.341 61.7339V62.0673H165.074C165.163 62.8743 165.741 63.3596 166.486 63.3596C166.969 63.3596 167.451 63.1959 167.684 62.7573H169.287C168.935 64.0029 167.684 64.5643 166.438 64.5643ZM165.068 61.0322H167.666C167.612 60.3538 167.094 59.9152 166.385 59.9152C165.675 59.9152 165.157 60.3246 165.068 61.0322Z" fill="#E9EEF3"/>
<path d="M79.6472 74.2135C79.6472 75.5936 78.5625 77.2368 76.5899 77.2368C75.2609 77.2368 74.4384 76.3947 74.4384 75.114C74.4384 73.7339 75.5231 72.0906 77.4957 72.0906C78.8248 72.0906 79.6472 72.9327 79.6472 74.2076V74.2135ZM78.3122 73.3304C78.3122 72.6871 78.1036 72.2953 77.5792 72.2953C76.4468 72.2953 75.7793 74.769 75.7793 75.9971C75.7793 76.6404 75.9879 77.0322 76.5124 77.0322C77.6447 77.0322 78.3122 74.5585 78.3122 73.3304Z" fill="#E9EEF3"/>
<path d="M82.9787 72.4883L82.2218 75.9737C81.6973 78.4181 80.9524 79.3012 79.4267 79.3012C78.5268 79.3012 78.0321 78.9678 78.0321 78.3947C78.0321 78.0088 78.3361 77.693 78.7771 77.693C79.2181 77.693 79.4565 78.038 79.4565 78.383C79.4565 78.6404 79.2836 78.8977 79.0631 78.9971C79.1645 79.0497 79.2598 79.0848 79.4565 79.0848C79.8379 79.0848 80.1895 78.8392 80.4458 77.6988L81.6199 72.4883H80.3564L80.4458 72.2193H81.6735L81.7927 71.769C82.186 70.1667 83.0859 69.3713 84.3375 69.3713C85.2791 69.3713 85.893 69.7573 85.893 70.4123C85.893 70.8626 85.6307 71.1959 85.1361 71.1959C84.6951 71.1959 84.3911 70.8918 84.3911 70.4766C84.3911 70.2193 84.558 69.9269 84.7427 69.769C84.6772 69.6696 84.4924 69.576 84.3256 69.576C83.8667 69.576 83.5687 70.0263 83.3064 71.1023L83.0561 72.2193H84.415L84.3256 72.4883H82.9787Z" fill="#E9EEF3"/>
<path d="M89.6655 74.4298V77.155H87.9133V69.6228H91.4653C93.4081 69.6228 94.2306 70.7105 94.2306 71.9912C94.2306 73.1316 93.575 73.8626 92.7168 74.155V74.1784C92.8062 74.3304 92.8718 74.424 92.991 74.6403L94.4511 77.1608H92.4248L91.0004 74.5877C90.923 74.4591 90.8991 74.4357 90.7263 74.4357H89.6714L89.6655 74.4298ZM89.6655 73.0263H91.2448C92.0374 73.0263 92.4427 72.6287 92.4427 72.0263C92.4427 71.424 92.0255 71.0146 91.2448 71.0146H89.6655V73.0263Z" fill="#E9EEF3"/>
<path d="M98.7897 76.5175C98.4143 76.9678 97.8362 77.2719 97.0138 77.2719C95.941 77.2719 94.91 76.6696 94.91 75.5292C94.91 74.3889 95.8635 73.9561 97.3654 73.7222L98.6706 73.5175V73.4415C98.6706 72.8392 98.3308 72.5994 97.7408 72.5994C97.1508 72.5994 96.7635 72.8801 96.6681 73.3947H95.1126C95.2974 72.1784 96.382 71.4357 97.8183 71.4357C99.3559 71.4357 100.321 72.0263 100.309 73.5994L100.298 75.9678C100.298 76.1491 100.309 76.4708 100.339 77.1491H98.8136L98.7897 76.5117V76.5175ZM97.4369 76.1082C98.1044 76.1082 98.6646 75.7222 98.6646 74.9444V74.5702C97.1628 74.7515 96.5131 74.9152 96.5131 75.4532C96.5131 75.886 96.9065 76.1082 97.4369 76.1082Z" fill="#E9EEF3"/>
<path d="M105.608 76.3655C105.268 76.9444 104.684 77.2719 103.897 77.2719C102.485 77.2719 101.263 76.2602 101.263 74.3246C101.263 72.3889 102.526 71.4532 103.915 71.4532C104.648 71.4532 105.208 71.7222 105.548 72.2076V69.4123H107.217V77.1608H105.608V76.3655ZM105.584 74.3187C105.584 73.3304 105.024 72.7573 104.279 72.7573C103.534 72.7573 102.973 73.3246 102.973 74.3187C102.973 75.3129 103.522 75.9561 104.279 75.9561C105.036 75.9561 105.584 75.3655 105.584 74.3187Z" fill="#E9EEF3"/>
<path d="M108.558 69.4006H110.238V70.7573H108.558V69.4006ZM108.558 71.576H110.226V77.1491H108.558V71.576Z" fill="#E9EEF3"/>
<path d="M111.234 74.3304C111.234 72.5526 112.628 71.4357 114.315 71.4357C116.001 71.4357 117.396 72.5409 117.396 74.3304C117.396 76.1199 116.025 77.2778 114.315 77.2778C112.604 77.2778 111.234 76.1374 111.234 74.3304ZM115.685 74.3304C115.685 73.3947 115.125 72.769 114.315 72.769C113.504 72.769 112.944 73.3947 112.944 74.3304C112.944 75.2661 113.504 75.9444 114.315 75.9444C115.125 75.9444 115.685 75.3187 115.685 74.3304Z" fill="#E9EEF3"/>
<path d="M118.391 69.4006H120.06V77.1491H118.391V69.4006Z" fill="#E9EEF3"/>
<path d="M121.067 74.3304C121.067 72.5526 122.462 71.4357 124.148 71.4357C125.835 71.4357 127.229 72.5409 127.229 74.3304C127.229 76.1199 125.859 77.2778 124.148 77.2778C122.438 77.2778 121.067 76.1374 121.067 74.3304ZM125.519 74.3304C125.519 73.3947 124.959 72.769 124.148 72.769C123.338 72.769 122.778 73.3947 122.778 74.3304C122.778 75.2661 123.338 75.9444 124.148 75.9444C124.959 75.9444 125.519 75.3187 125.519 74.3304Z" fill="#E9EEF3"/>
<path d="M130.936 79.3129C129.291 79.3129 128.284 78.5702 128.094 77.3889H129.715C129.834 77.8743 130.263 78.1433 130.942 78.1433C131.622 78.1433 132.104 77.7982 132.104 77.0263V76.2193C131.777 76.7164 131.205 77.0029 130.436 77.0029C129.065 77.0029 127.927 76.0029 127.927 74.2076C127.927 72.4123 129.113 71.4532 130.46 71.4532C131.246 71.4532 131.806 71.7632 132.14 72.3129V71.5819H133.761V76.9211C133.761 78.576 132.51 79.3187 130.93 79.3187L130.936 79.3129ZM132.116 74.2018C132.116 73.2778 131.568 72.7281 130.877 72.7281C130.185 72.7281 129.637 73.3012 129.637 74.2018C129.637 75.1608 130.162 75.7164 130.877 75.7164C131.592 75.7164 132.116 75.1491 132.116 74.2018Z" fill="#E9EEF3"/>
<path d="M137.337 79.1959H135.627L136.646 76.7632L134.387 71.576H136.133L137.48 75.0088L138.72 71.576H140.388L137.337 79.1959Z" fill="#E9EEF3"/>
<path d="M141.896 72.0146H141.199V71.6579H143.023V72.0146H142.325V73.7982H141.896V72.0146Z" fill="#E9EEF3"/>
<path d="M143.732 71.9912V73.7982H143.327V71.6637H144.018L144.554 73.3187L145.097 71.6637H145.77V73.7982H145.365V71.9678L144.757 73.7982H144.34L143.738 71.9912H143.732Z" fill="#E9EEF3"/>
</svg>
