<svg width="200" height="136" viewBox="0 0 200 136" fill="none" xmlns="http://www.w3.org/2000/svg">
<rect width="200" height="136" fill="#0E2A65"/>
<rect width="200" height="136" fill="white"/>
<path fill-rule="evenodd" clip-rule="evenodd" d="M63.2079 62.3941C60.9028 60.9526 58.6744 60.957 56.4309 62.3608C56.4263 62.3577 56.4205 62.3543 56.4139 62.3505C56.3983 62.3414 56.3787 62.3301 56.3627 62.3155C55.9403 61.9229 55.5179 61.5302 55.0955 61.1376C53.8287 59.96 52.562 58.7824 51.2926 57.6074C51.1885 57.511 51.22 57.4433 51.2705 57.3466C52.138 55.6856 50.9975 53.8255 49.0236 53.6783C47.6459 53.5756 46.3546 54.512 46.1442 55.7667C45.9179 57.1164 46.7898 58.3651 48.169 58.6783C48.8943 58.843 49.5728 58.7324 50.1879 58.4164C51.9404 60.0456 53.6781 61.6613 55.4174 63.2785L55.4423 63.3018C54.0153 65.0502 53.8692 67.5618 55.4426 69.5128L46.7872 77.5612C44.8935 76.0444 42.3732 76.4671 41.039 77.8135C39.6631 79.202 39.5635 81.3119 40.8084 82.7687C42.0829 84.2599 44.2919 84.6722 46.0569 83.7416C46.9403 83.2758 47.5639 82.5962 47.906 81.7057C48.3153 80.6399 48.2069 79.6023 47.6785 78.6294L47.6932 78.6157C50.6297 75.8862 53.5506 73.171 56.4794 70.4483C57.2417 70.9938 58.128 71.3264 59.1025 71.4567V77.914C56.8691 78.2821 55.4259 80.2074 55.7303 82.2169C56.0089 84.057 57.6611 85.4428 59.6177 85.51C61.6166 85.5785 63.3525 84.3465 63.7989 82.5178C64.0129 81.6418 63.9068 80.786 63.4618 79.9827C62.833 78.8465 61.8159 78.18 60.4902 77.9227V71.4526C61.4838 71.3281 62.363 70.9791 63.1415 70.4305C63.1506 70.4354 63.1574 70.4388 63.1627 70.4414C63.171 70.4455 63.1754 70.4477 63.1788 70.451C63.5276 70.7751 63.8764 71.0993 64.2251 71.4234C65.5829 72.6854 66.9406 73.9473 68.3016 75.2063C68.4032 75.3002 68.3685 75.3651 68.323 75.4502C68.32 75.4557 68.317 75.4614 68.314 75.4671C67.4039 77.1945 68.731 79.1523 70.7993 79.1354C71.8992 79.1264 72.9037 78.4787 73.2981 77.5241C73.7112 76.5241 73.4359 75.433 72.5886 74.7132C71.7687 74.0166 70.5797 73.8509 69.585 74.3126C69.4078 74.3948 69.3155 74.3697 69.1835 74.246C68.0319 73.1652 66.8734 72.0905 65.7144 71.016C65.3506 70.6787 64.9841 70.3438 64.6205 70.0115C64.4534 69.8588 64.2869 69.7066 64.1216 69.5551C65.6609 67.4432 65.6618 65.365 64.153 63.296L70.7599 57.1492C70.7704 57.1574 70.7819 57.1666 70.7942 57.1765C70.8245 57.2008 70.8596 57.2289 70.8959 57.2557C71.8869 57.9869 73.0104 58.2679 74.2526 58.0544C76.4431 57.6781 77.8948 55.7355 77.5466 53.6797C77.2083 51.6844 75.1947 50.2765 73.0174 50.5133C70.2494 50.8139 68.5973 53.5279 69.7604 55.8827C69.8618 56.0883 69.8248 56.1875 69.6687 56.3319C67.5981 58.2491 65.5331 60.1714 63.4692 62.0948C63.396 62.1631 63.3331 62.2409 63.2764 62.311C63.2526 62.3405 63.2299 62.3686 63.2079 62.3941ZM59.6614 69.8774C61.7408 69.8774 63.4266 68.311 63.4266 66.3788C63.4266 64.4467 61.7408 62.8802 59.6614 62.8802C57.5819 62.8802 55.8961 64.4467 55.8961 66.3788C55.8961 68.311 57.5819 69.8774 59.6614 69.8774Z" fill="#6300C6"/>
<path d="M155.217 66.1931C154.57 66.1931 153.984 66.0385 153.459 65.7293C152.937 65.4167 152.523 64.958 152.216 64.3534C151.913 63.7453 151.762 62.9998 151.762 62.1169C151.762 61.2099 151.919 60.4559 152.233 59.8547C152.547 59.25 152.965 58.7983 153.486 58.4994C154.011 58.1971 154.586 58.0459 155.211 58.0459C155.688 58.0459 156.086 58.1215 156.404 58.2726C156.725 58.4204 156.984 58.6059 157.18 58.8292C157.38 59.049 157.531 59.2655 157.635 59.4785H157.707V55.5105H160.064V66.0642H157.735V64.7966H157.635C157.524 65.0164 157.367 65.2346 157.163 65.451C156.964 65.664 156.703 65.8409 156.381 65.9818C156.063 66.1226 155.675 66.1931 155.217 66.1931ZM155.965 64.4461C156.346 64.4461 156.668 64.3499 156.93 64.1576C157.197 63.9617 157.4 63.6886 157.54 63.3382C157.685 62.9878 157.757 62.5773 157.757 62.1066C157.757 61.6359 157.686 61.2271 157.546 60.8801C157.405 60.5332 157.202 60.2652 156.936 60.0762C156.67 59.8873 156.346 59.7928 155.965 59.7928C155.577 59.7928 155.25 59.8907 154.984 60.0865C154.718 60.2824 154.516 60.5538 154.379 60.9008C154.242 61.2477 154.174 61.6497 154.174 62.1066C154.174 62.5669 154.242 62.974 154.379 63.3279C154.52 63.6783 154.721 63.9532 154.984 64.1524C155.25 64.3482 155.577 64.4461 155.965 64.4461Z" fill="#0E2A65"/>
<path d="M147.079 66.2185C146.203 66.2185 145.448 66.0536 144.816 65.7238C144.188 65.3906 143.703 64.9199 143.363 64.3118C143.023 63.7003 142.853 62.9772 142.853 62.1423C142.853 61.3281 143.023 60.6136 143.363 59.9986C143.703 59.3837 144.182 58.9044 144.8 58.5609C145.421 58.2173 146.149 58.0456 146.985 58.0456C147.547 58.0456 148.07 58.1297 148.554 58.2981C149.042 58.463 149.467 58.712 149.83 59.0453C150.196 59.3785 150.48 59.7976 150.684 60.3027C150.887 60.8042 150.989 61.3917 150.989 62.065V62.668H143.796V61.3075H148.765C148.765 60.9915 148.691 60.7115 148.543 60.4676C148.395 60.2236 148.19 60.033 147.927 59.8956C147.669 59.7547 147.367 59.6843 147.024 59.6843C146.665 59.6843 146.347 59.7616 146.07 59.9162C145.796 60.0673 145.582 60.2717 145.426 60.5294C145.271 60.7836 145.191 61.067 145.188 61.3797V62.6731C145.188 63.0648 145.265 63.4032 145.421 63.6883C145.58 63.9734 145.803 64.1933 146.092 64.3479C146.38 64.5025 146.722 64.5798 147.118 64.5798C147.38 64.5798 147.621 64.5454 147.839 64.4767C148.057 64.408 148.244 64.305 148.399 64.1675C148.554 64.0301 148.673 63.8618 148.754 63.6625L150.939 63.7965C150.828 64.2843 150.601 64.7103 150.257 65.0745C149.917 65.4352 149.477 65.7169 148.937 65.9196C148.401 66.1189 147.781 66.2185 147.079 66.2185Z" fill="#0E2A65"/>
<path d="M142.202 58.1494V59.7984H137.072V58.1494H142.202ZM138.236 56.2531H140.599V63.6324C140.599 63.8351 140.632 63.9931 140.699 64.1065C140.765 64.2164 140.858 64.2937 140.976 64.3384C141.098 64.3831 141.239 64.4054 141.398 64.4054C141.509 64.4054 141.619 64.3968 141.73 64.3796C141.841 64.359 141.926 64.3435 141.986 64.3332L142.357 65.9668C142.239 66.0012 142.072 66.0407 141.858 66.0853C141.644 66.1334 141.383 66.1626 141.076 66.1729C140.507 66.1935 140.007 66.1231 139.579 65.9616C139.153 65.8002 138.822 65.5494 138.586 65.2093C138.349 64.8692 138.233 64.4397 138.236 63.921V56.2531Z" fill="#0E2A65"/>
<path d="M131.775 66.2134C131.231 66.2134 130.747 66.1257 130.322 65.9505C129.896 65.7719 129.56 65.5091 129.312 65.1621C129.068 64.8117 128.946 64.3754 128.946 63.8532C128.946 63.4135 129.033 63.0441 129.207 62.7453C129.381 62.4464 129.617 62.2059 129.917 62.0238C130.216 61.8417 130.556 61.7043 130.937 61.6116C131.322 61.5188 131.725 61.4535 132.146 61.4157C132.642 61.3676 133.041 61.323 133.344 61.2818C133.647 61.2371 133.867 61.1718 134.004 61.0859C134.141 61.0001 134.209 60.8729 134.209 60.7046V60.6737C134.209 60.3473 134.098 60.0948 133.877 59.9162C133.658 59.7375 133.348 59.6482 132.945 59.6482C132.52 59.6482 132.181 59.7358 131.93 59.911C131.679 60.0828 131.512 60.2992 131.431 60.5603L129.246 60.3954C129.357 59.9144 129.575 59.4988 129.9 59.1483C130.225 58.7945 130.645 58.5231 131.159 58.3341C131.677 58.1418 132.276 58.0456 132.956 58.0456C133.429 58.0456 133.882 58.0971 134.315 58.2002C134.751 58.3032 135.137 58.463 135.474 58.6794C135.814 58.8958 136.082 59.1741 136.278 59.5142C136.474 59.8509 136.572 60.2546 136.572 60.7252V66.0639H134.331V64.9663H134.265C134.128 65.2136 133.945 65.4318 133.716 65.6207C133.486 65.8063 133.211 65.9523 132.889 66.0588C132.568 66.1618 132.196 66.2134 131.775 66.2134ZM132.451 64.6983C132.799 64.6983 133.106 64.6348 133.372 64.5077C133.638 64.3771 133.847 64.2019 133.999 63.982C134.15 63.7622 134.226 63.5131 134.226 63.2348V62.3948C134.152 62.4395 134.05 62.4807 133.921 62.5185C133.795 62.5529 133.653 62.5855 133.494 62.6164C133.335 62.6439 133.176 62.6697 133.017 62.6937C132.858 62.7143 132.714 62.7332 132.584 62.7504C132.307 62.7882 132.065 62.8483 131.858 62.9308C131.651 63.0132 131.49 63.1249 131.375 63.2657C131.261 63.4032 131.203 63.5749 131.203 63.7811C131.203 64.0799 131.32 64.3084 131.553 64.4664C131.789 64.621 132.089 64.6983 132.451 64.6983Z" fill="#0E2A65"/>
<path d="M123.387 66.0652V58.1499H125.678V59.531H125.766C125.922 59.0397 126.182 58.6687 126.548 58.4179C126.914 58.1637 127.336 58.0366 127.813 58.0366C127.931 58.0366 128.059 58.0434 128.195 58.0572C128.332 58.0709 128.452 58.0898 128.556 58.1139V60.0618C128.445 60.0309 128.292 60.0034 128.096 59.9793C127.9 59.9553 127.72 59.9432 127.558 59.9432C127.21 59.9432 126.9 60.0137 126.626 60.1545C126.356 60.2919 126.142 60.4843 125.983 60.7317C125.827 60.979 125.75 61.2642 125.75 61.5871V66.0652H123.387Z" fill="#0E2A65"/>
<path d="M118.388 66.2185C117.512 66.2185 116.758 66.0536 116.125 65.7238C115.497 65.3906 115.012 64.9199 114.672 64.3118C114.332 63.7003 114.162 62.9772 114.162 62.1423C114.162 61.3281 114.332 60.6136 114.672 59.9986C115.012 59.3837 115.491 58.9044 116.109 58.5609C116.73 58.2173 117.458 58.0456 118.294 58.0456C118.856 58.0456 119.379 58.1297 119.863 58.2981C120.351 58.463 120.777 58.712 121.139 59.0453C121.505 59.3785 121.79 59.7976 121.993 60.3027C122.196 60.8042 122.298 61.3917 122.298 62.065V62.668H115.105V61.3075H120.074C120.074 60.9915 120 60.7115 119.852 60.4676C119.704 60.2236 119.499 60.033 119.237 59.8956C118.978 59.7547 118.676 59.6843 118.333 59.6843C117.974 59.6843 117.656 59.7616 117.379 59.9162C117.105 60.0673 116.891 60.2717 116.735 60.5294C116.58 60.7836 116.501 61.067 116.497 61.3797V62.6731C116.497 63.0648 116.575 63.4032 116.73 63.6883C116.889 63.9734 117.113 64.1933 117.401 64.3479C117.689 64.5025 118.031 64.5798 118.427 64.5798C118.689 64.5798 118.93 64.5454 119.148 64.4767C119.366 64.408 119.553 64.305 119.708 64.1675C119.863 64.0301 119.982 63.8618 120.063 63.6625L122.248 63.7965C122.137 64.2843 121.91 64.7103 121.566 65.0745C121.226 65.4352 120.786 65.7169 120.246 65.9196C119.71 66.1189 119.091 66.2185 118.388 66.2185Z" fill="#0E2A65"/>
<path d="M108.169 66.1931C107.522 66.1931 106.936 66.0385 106.411 65.7293C105.89 65.4167 105.476 64.958 105.169 64.3534C104.866 63.7453 104.714 62.9998 104.714 62.1169C104.714 61.2099 104.871 60.4559 105.186 59.8547C105.5 59.25 105.918 58.7983 106.439 58.4994C106.964 58.1971 107.539 58.0459 108.164 58.0459C108.641 58.0459 109.038 58.1215 109.356 58.2726C109.678 58.4204 109.937 58.6059 110.133 58.8292C110.332 59.049 110.484 59.2655 110.587 59.4785H110.659V55.5105H113.016V66.0642H110.687V64.7966H110.587C110.476 65.0164 110.319 65.2346 110.116 65.451C109.916 65.664 109.656 65.8409 109.334 65.9818C109.016 66.1226 108.628 66.1931 108.169 66.1931ZM108.918 64.4461C109.299 64.4461 109.62 64.3499 109.883 64.1576C110.149 63.9617 110.353 63.6886 110.493 63.3382C110.637 62.9878 110.709 62.5773 110.709 62.1066C110.709 61.6359 110.639 61.2271 110.499 60.8801C110.358 60.5332 110.155 60.2652 109.889 60.0762C109.622 59.8873 109.299 59.7928 108.918 59.7928C108.53 59.7928 108.203 59.8907 107.936 60.0865C107.67 60.2824 107.469 60.5538 107.332 60.9008C107.195 61.2477 107.127 61.6497 107.127 62.1066C107.127 62.5669 107.195 62.974 107.332 63.3279C107.472 63.6783 107.674 63.9532 107.936 64.1524C108.203 64.3482 108.53 64.4461 108.918 64.4461Z" fill="#0E2A65"/>
<path d="M100.032 66.2185C99.1553 66.2185 98.401 66.0536 97.7688 65.7238C97.1403 65.3906 96.6559 64.9199 96.3158 64.3118C95.9756 63.7003 95.8055 62.9772 95.8055 62.1423C95.8055 61.3281 95.9756 60.6136 96.3158 59.9986C96.6559 59.3837 97.1347 58.9044 97.7522 58.5609C98.3733 58.2173 99.1017 58.0456 99.9373 58.0456C100.499 58.0456 101.022 58.1297 101.507 58.2981C101.995 58.463 102.42 58.712 102.782 59.0453C103.148 59.3785 103.433 59.7976 103.636 60.3027C103.84 60.8042 103.941 61.3917 103.941 62.065V62.668H96.7483V61.3075H101.718C101.718 60.9915 101.644 60.7115 101.496 60.4676C101.348 60.2236 101.143 60.033 100.88 59.8956C100.621 59.7547 100.32 59.6843 99.9761 59.6843C99.6175 59.6843 99.2995 59.7616 99.0222 59.9162C98.7486 60.0673 98.5341 60.2717 98.3789 60.5294C98.2236 60.7836 98.1441 61.067 98.1404 61.3797V62.6731C98.1404 63.0648 98.218 63.4032 98.3733 63.6883C98.5323 63.9734 98.756 64.1933 99.0444 64.3479C99.3328 64.5025 99.6748 64.5798 100.07 64.5798C100.333 64.5798 100.573 64.5454 100.791 64.4767C101.009 64.408 101.196 64.305 101.351 64.1675C101.507 64.0301 101.625 63.8618 101.706 63.6625L103.892 63.7965C103.781 64.2843 103.553 64.7103 103.209 65.0745C102.869 65.4352 102.429 65.7169 101.889 65.9196C101.353 66.1189 100.734 66.2185 100.032 66.2185Z" fill="#0E2A65"/>
<path d="M88.6834 66.0643V55.5106H96.2037V57.3503H91.0848V59.8651H95.7046V61.7048H91.0848V66.0643H88.6834Z" fill="#0E2A65"/>
<path d="M144.724 78.1683L144.702 76.6636H144.968L148.695 73.1388H150.314L146.344 76.8697H146.233L144.724 78.1683ZM143.504 81.0541V70.5004H144.813V81.0541H143.504ZM148.917 81.0541L145.589 77.1377L146.521 76.2926L150.581 81.0541H148.917Z" fill="#0E2A65"/>
<path d="M137.694 81.0546V73.1394H138.959V74.3349H139.047C139.203 73.9432 139.484 73.6255 139.89 73.3816C140.297 73.1376 140.755 73.0157 141.266 73.0157C141.362 73.0157 141.482 73.0174 141.626 73.0208C141.77 73.0243 141.879 73.0294 141.953 73.0363V74.2731C141.909 74.2627 141.807 74.2473 141.648 74.2267C141.493 74.2026 141.329 74.1906 141.155 74.1906C140.741 74.1906 140.371 74.2713 140.046 74.4328C139.724 74.5908 139.469 74.8107 139.28 75.0924C139.095 75.3707 139.003 75.6885 139.003 76.0457V81.0546H137.694Z" fill="#0E2A65"/>
<path d="M131.836 81.2187C131.067 81.2187 130.392 81.0486 129.811 80.7085C129.234 80.3684 128.783 79.8926 128.458 79.2811C128.136 78.6696 127.976 77.955 127.976 77.1374C127.976 76.3129 128.136 75.5931 128.458 74.9782C128.783 74.3633 129.234 73.8857 129.811 73.5456C130.392 73.2055 131.067 73.0355 131.836 73.0355C132.605 73.0355 133.278 73.2055 133.854 73.5456C134.435 73.8857 134.886 74.3633 135.208 74.9782C135.533 75.5931 135.696 76.3129 135.696 77.1374C135.696 77.955 135.533 78.6696 135.208 79.2811C134.886 79.8926 134.435 80.3684 133.854 80.7085C133.278 81.0486 132.605 81.2187 131.836 81.2187ZM131.836 80.1262C132.42 80.1262 132.9 79.9871 133.278 79.7088C133.655 79.4305 133.934 79.0647 134.115 78.6112C134.296 78.1577 134.387 77.6664 134.387 77.1374C134.387 76.6083 134.296 76.1153 134.115 75.6584C133.934 75.2015 133.655 74.8322 133.278 74.5505C132.9 74.2688 132.42 74.1279 131.836 74.1279C131.251 74.1279 130.771 74.2688 130.394 74.5505C130.016 74.8322 129.737 75.2015 129.556 75.6584C129.375 76.1153 129.284 76.6083 129.284 77.1374C129.284 77.6664 129.375 78.1577 129.556 78.6112C129.737 79.0647 130.016 79.4305 130.394 79.7088C130.771 79.9871 131.251 80.1262 131.836 80.1262Z" fill="#0E2A65"/>
<path d="M117.906 81.0532L115.31 73.1379H116.686L118.527 79.1981H118.616L120.435 73.1379H121.832L123.629 79.1775H123.718L125.559 73.1379H126.935L124.339 81.0532H123.052L121.189 74.9725H121.056L119.192 81.0532H117.906Z" fill="#0E2A65"/>
<path d="M114.007 73.1393V74.17H109.592V73.1393H114.007ZM110.879 71.2429H112.188V78.7872C112.188 79.1307 112.241 79.3884 112.348 79.5602C112.459 79.7285 112.6 79.8419 112.77 79.9003C112.944 79.9553 113.127 79.9827 113.319 79.9827C113.463 79.9827 113.581 79.9759 113.674 79.9621C113.766 79.945 113.84 79.9312 113.896 79.9209L114.162 81.0134C114.073 81.0443 113.949 81.0752 113.79 81.1061C113.631 81.1405 113.43 81.1577 113.186 81.1577C112.816 81.1577 112.454 81.0838 112.099 80.9361C111.748 80.7884 111.455 80.5633 111.223 80.261C110.993 79.9587 110.879 79.5774 110.879 79.117V71.2429Z" fill="#0E2A65"/>
<path d="M104.784 81.2187C103.963 81.2187 103.255 81.0504 102.66 80.7137C102.068 80.3736 101.612 79.8995 101.29 79.2914C100.972 78.6799 100.813 77.9688 100.813 77.158C100.813 76.3472 100.972 75.6327 101.29 75.0143C101.612 74.3925 102.059 73.9081 102.632 73.5611C103.209 73.2107 103.882 73.0355 104.651 73.0355C105.094 73.0355 105.533 73.1042 105.965 73.2416C106.398 73.379 106.791 73.6023 107.146 73.9115C107.501 74.2172 107.784 74.6226 107.995 75.1276C108.206 75.6327 108.311 76.2545 108.311 76.9931V77.5084H101.745V76.4572H106.98C106.98 76.0106 106.884 75.612 106.692 75.2616C106.503 74.9112 106.233 74.6347 105.882 74.432C105.534 74.2293 105.124 74.1279 104.651 74.1279C104.129 74.1279 103.678 74.2482 103.298 74.4886C102.92 74.7257 102.63 75.0349 102.427 75.4162C102.223 75.7976 102.122 76.2064 102.122 76.6427V77.3435C102.122 77.9413 102.233 78.448 102.455 78.8637C102.68 79.276 102.992 79.5903 103.392 79.8067C103.791 80.0197 104.255 80.1262 104.784 80.1262C105.128 80.1262 105.438 80.0816 105.716 79.9922C105.997 79.8995 106.239 79.7621 106.442 79.58C106.645 79.3945 106.803 79.1643 106.913 78.8895L108.178 79.2193C108.045 79.6178 107.821 79.9682 107.507 80.2705C107.193 80.5694 106.804 80.803 106.342 80.9713C105.88 81.1363 105.361 81.2187 104.784 81.2187Z" fill="#0E2A65"/>
<path d="M98.6375 70.5004V81.0541H97.3065L91.1172 72.7678H91.0063V81.0541H89.6309V70.5004H90.9619L97.1734 78.8073H97.2843V70.5004H98.6375Z" fill="#0E2A65"/>
</svg>
