<svg width="200" height="136" viewBox="0 0 200 136" fill="none" xmlns="http://www.w3.org/2000/svg">
<rect width="200" height="136" fill="#0E2A65"/>
<rect width="200" height="136" fill="white"/>
<path d="M53.3164 73.8132H58.2026V57.3874H67.0191V52.3836H44.5V57.3874H53.3164V73.8132Z" fill="#151467"/>
<path d="M99.2045 60.5419H94.3182V73.813H99.2045V60.5419Z" fill="#151467"/>
<path d="M116.412 52.2746H111.951L100.691 73.813H127.672L116.412 52.2746ZM113.874 59.2213L118.753 68.8091H108.979L113.876 59.2213H113.874Z" fill="#151467"/>
<path d="M153.482 52.0093C152.369 52.0093 151.464 52.9361 151.464 54.0761C151.464 55.2161 152.369 56.1429 153.482 56.1429C154.595 56.1429 155.5 55.2161 155.5 54.0761C155.5 52.9361 154.595 52.0093 153.482 52.0093ZM153.482 55.7078C152.602 55.7078 151.888 54.9768 151.888 54.0761C151.888 53.1754 152.602 52.4444 153.482 52.4444C154.361 52.4444 155.075 53.1754 155.075 54.0761C155.075 54.9768 154.361 55.7078 153.482 55.7078Z" fill="#151467"/>
<path d="M154.179 53.7345C154.179 53.3669 153.919 53.108 153.548 53.108H152.768V55.0399H153.189V54.3589H153.359L153.786 55.0399H154.287L153.811 54.3024C154.013 54.2262 154.179 54.0391 154.179 53.7324V53.7345ZM153.966 53.7345C153.966 53.8433 153.936 53.926 153.89 53.9869C153.936 53.9173 153.964 53.8303 153.964 53.7345C153.964 53.6192 153.926 53.5192 153.86 53.4452C153.928 53.517 153.966 53.6149 153.966 53.7345ZM153.522 53.9564H153.189V53.517H153.522C153.66 53.517 153.749 53.6018 153.749 53.7345C153.749 53.8673 153.66 53.9543 153.522 53.9543V53.9564Z" fill="#151467"/>
<path d="M144.243 52.2379H129.478V73.8133H144.243C148.819 73.8133 152.528 69.04 152.528 63.1528C152.528 63.1333 152.528 63.1115 152.528 63.0919C152.528 63.0723 152.528 63.0506 152.528 63.031C152.528 57.0699 148.819 52.2379 144.243 52.2379ZM147.357 63.6162C147.357 65.385 146.492 66.9471 145.173 67.8848C144.423 68.4635 143.499 68.8116 142.496 68.8116H134.559C134.485 68.8116 134.417 68.7811 134.364 68.7354V57.381C134.417 57.3331 134.485 57.3027 134.559 57.3027H142.125C142.18 57.3027 142.233 57.2983 142.288 57.2983C142.343 57.2983 142.399 57.3005 142.452 57.3027H142.496C143.416 57.3027 144.272 57.5942 144.986 58.0967C146.41 59.0148 147.357 60.64 147.357 62.4915V63.6162Z" fill="#151467"/>
<path d="M83.8722 66.5248L83.9105 66.5594H86.2091C86.377 66.5594 86.5405 66.5421 86.702 66.5183C86.6574 66.5204 86.6107 66.5248 86.566 66.5248H83.8722Z" fill="#151467"/>
<path d="M73.1798 66.5247H76.0117L84.1207 73.8129H91.9811L83.9105 66.5594L83.8722 66.5248L86.5638 66.5247C86.6105 66.5247 86.6551 66.5203 86.6998 66.5181C87.2734 66.4855 87.7938 66.2505 88.1954 65.8807C89.0111 65.2585 89.5401 64.2664 89.5401 63.146V55.8229C89.5401 54.8308 89.1237 53.9388 88.463 53.3166C88.0148 52.7488 87.3307 52.3855 86.5617 52.3855H68.2915V73.8151H73.1777V66.5268L73.1798 66.5247ZM73.1777 57.3676H83.7999C83.9762 57.3676 84.1207 57.5155 84.1207 57.6961V61.1945C84.1207 61.375 83.9762 61.523 83.7999 61.523H73.1777V57.3676Z" fill="#151467"/>
<path d="M53.3165 83.9896H152.528V75.9399H53.3165V83.9896ZM148.271 78.1372C148.271 78.1024 148.277 78.0894 148.309 78.0894H150.302C150.333 78.0894 150.346 78.0959 150.35 78.1242L150.406 78.6376C150.412 78.6681 150.399 78.6898 150.367 78.6898H148.882V79.6754H150.231C150.253 79.6754 150.27 79.6863 150.27 79.7167V80.2367C150.27 80.2715 150.253 80.278 150.225 80.278H148.88V81.3463H150.459C150.491 81.3463 150.497 81.3571 150.491 81.3876L150.42 81.901C150.414 81.9358 150.403 81.9489 150.372 81.9489H148.315C148.277 81.9489 148.273 81.938 148.273 81.901V78.1372H148.271ZM146.654 78.0306C146.992 78.0306 147.291 78.072 147.476 78.1655C147.497 78.1764 147.508 78.196 147.508 78.2308V78.7616C147.508 78.7965 147.487 78.803 147.465 78.7921C147.236 78.6681 146.97 78.6333 146.664 78.6268C145.821 78.6202 145.364 79.1467 145.364 80.0191C145.364 80.8154 145.783 81.418 146.584 81.418C146.758 81.418 146.877 81.4006 146.981 81.3658V80.4042L146.382 80.3868C146.35 80.3803 146.344 80.3694 146.344 80.339V79.8494C146.344 79.819 146.354 79.8081 146.376 79.8081H147.55C147.589 79.8081 147.595 79.8255 147.595 79.856V81.7683C147.595 81.7966 147.589 81.8097 147.563 81.8205C147.204 81.9685 146.856 82.0033 146.556 82.0033C145.332 82.0033 144.733 81.1352 144.733 80.0452C144.733 78.8117 145.507 78.0328 146.654 78.0328V78.0306ZM141.402 78.1307C141.402 78.1003 141.409 78.0894 141.434 78.0894H142.148C142.186 78.0894 142.193 78.0959 142.207 78.1307C142.594 78.9031 143.416 80.6153 143.59 81.0395H143.597C143.59 80.8676 143.58 80.6392 143.58 80.1192V78.1372C143.58 78.1024 143.59 78.0894 143.624 78.0894H144.115C144.147 78.0894 144.16 78.1003 144.16 78.1372V81.8945C144.16 81.9358 144.149 81.9467 144.105 81.9467H143.467C143.429 81.9467 143.412 81.9402 143.397 81.9054C143.132 81.3027 142.15 79.3621 141.955 78.8073H141.948C141.969 79.0902 141.976 79.3795 141.976 79.8995V81.8989C141.976 81.9337 141.965 81.9467 141.938 81.9467H141.447C141.415 81.9467 141.404 81.9402 141.404 81.8989V78.1285L141.402 78.1307ZM138.985 78.4266C139.002 78.3679 139.016 78.3156 139.023 78.1264C139.023 78.1024 139.033 78.0916 139.055 78.0916H139.762C139.79 78.0916 139.794 78.0981 139.8 78.1198L140.992 81.901C141.003 81.9315 140.999 81.9489 140.965 81.9489H140.399C140.372 81.9489 140.361 81.938 140.351 81.9141L140.04 80.8937H138.804L138.504 81.9076C138.498 81.938 138.483 81.9489 138.449 81.9489H137.948C137.91 81.9489 137.899 81.9315 137.91 81.8967L138.982 78.4288L138.985 78.4266ZM134.823 78.1372C134.823 78.1024 134.833 78.0894 134.867 78.0894H135.39C135.422 78.0894 135.435 78.1003 135.435 78.1307V79.6406H136.898V78.1307C136.898 78.1003 136.909 78.0894 136.937 78.0894H137.476C137.498 78.0894 137.508 78.1003 137.508 78.1307V81.901C137.508 81.9358 137.502 81.9489 137.47 81.9489H136.937C136.909 81.9489 136.898 81.938 136.898 81.901V80.2432H135.435V81.901C135.435 81.9315 135.424 81.9489 135.39 81.9489H134.867C134.836 81.9489 134.823 81.938 134.823 81.901V78.1372ZM133.614 78.0306C133.941 78.0306 134.147 78.0611 134.273 78.1242C134.294 78.1351 134.304 78.1547 134.304 78.1895V78.7138C134.304 78.7551 134.283 78.7551 134.26 78.7486C134.103 78.6659 133.873 78.6246 133.601 78.6246C132.866 78.6246 132.388 79.1554 132.388 79.9996C132.388 81.0613 133.068 81.4028 133.608 81.4028C133.863 81.4028 134.05 81.3789 134.234 81.3093C134.256 81.3027 134.273 81.3027 134.273 81.3375V81.8336C134.273 81.8684 134.262 81.8923 134.234 81.8989C134.071 81.975 133.816 81.9989 133.531 81.9989C132.584 81.9989 131.751 81.3854 131.751 80.0235C131.751 78.8378 132.48 78.0285 133.612 78.0285L133.614 78.0306ZM128.785 81.8945L129.813 80.0126L128.813 78.1372C128.796 78.1133 128.813 78.0894 128.834 78.0894H129.448C129.48 78.0894 129.497 78.0959 129.507 78.1242C129.748 78.6137 130.009 79.0967 130.243 79.5862H130.249C130.478 79.0967 130.733 78.6137 130.973 78.1285C130.984 78.0981 130.995 78.0872 131.033 78.0872H131.6C131.632 78.0872 131.638 78.1046 131.621 78.1394L130.631 79.956L131.694 81.8858C131.711 81.9141 131.7 81.938 131.666 81.9445H131.052C131.007 81.9445 130.992 81.9337 130.975 81.8967C130.721 81.4137 130.463 80.9242 130.202 80.4107H130.196C129.956 80.9068 129.705 81.4137 129.461 81.9032C129.444 81.9337 129.429 81.9445 129.395 81.9445H128.806C128.775 81.9445 128.768 81.9141 128.785 81.8923V81.8945ZM126.321 78.1372C126.321 78.1024 126.327 78.0894 126.359 78.0894H128.352C128.384 78.0894 128.396 78.0959 128.401 78.1242L128.456 78.6376C128.462 78.6681 128.45 78.6898 128.418 78.6898H126.933V79.6754H128.282C128.303 79.6754 128.32 79.6863 128.32 79.7167V80.2367C128.32 80.2715 128.303 80.278 128.275 80.278H126.931V81.3463H128.509C128.541 81.3463 128.547 81.3571 128.541 81.3876L128.471 81.901C128.464 81.9358 128.454 81.9489 128.422 81.9489H126.365C126.327 81.9489 126.323 81.938 126.323 81.901V78.1372H126.321ZM121.617 78.1307C121.617 78.1003 121.624 78.0894 121.649 78.0894H122.363C122.401 78.0894 122.408 78.0959 122.422 78.1307C122.809 78.9031 123.631 80.6153 123.805 81.0395H123.812C123.805 80.8676 123.795 80.6392 123.795 80.1192V78.1372C123.795 78.1024 123.805 78.0894 123.839 78.0894H124.33C124.362 78.0894 124.375 78.1003 124.375 78.1372V81.8945C124.375 81.9358 124.364 81.9467 124.32 81.9467H123.682C123.644 81.9467 123.627 81.9402 123.612 81.9054C123.347 81.3027 122.365 79.3621 122.17 78.8073H122.163C122.185 79.0902 122.191 79.3795 122.191 79.8995V81.8989C122.191 81.9337 122.18 81.9467 122.153 81.9467H121.662C121.63 81.9467 121.619 81.9402 121.619 81.8989V78.1285L121.617 78.1307ZM119.453 78.0306C120.453 78.0306 121.031 78.8857 121.037 79.9887C121.044 81.2396 120.396 82.0011 119.448 82.0011C118.452 82.0011 117.859 81.1874 117.859 80.0061C117.859 78.8247 118.507 78.0306 119.455 78.0306H119.453ZM116.669 78.1307C116.669 78.0959 116.68 78.0894 116.708 78.0894H117.241C117.269 78.0894 117.279 78.1003 117.279 78.1307V81.901C117.279 81.9358 117.269 81.9489 117.241 81.9489H116.708C116.676 81.9489 116.669 81.938 116.669 81.901V78.1307ZM113.574 78.1307C113.581 78.1003 113.591 78.0894 113.623 78.0894H116.187C116.219 78.0894 116.232 78.1003 116.236 78.1372L116.285 78.6376C116.291 78.6724 116.274 78.6898 116.247 78.6898H115.201V81.8923C115.201 81.9271 115.185 81.9445 115.157 81.9445H114.634C114.602 81.9511 114.585 81.9337 114.585 81.8967V78.6877H113.536C113.508 78.6877 113.504 78.6703 113.508 78.6398L113.574 78.1264V78.1307ZM111.864 78.4266C111.881 78.3679 111.896 78.3156 111.902 78.1264C111.902 78.1024 111.913 78.0916 111.934 78.0916H112.642C112.669 78.0916 112.673 78.0981 112.68 78.1198L113.872 81.901C113.882 81.9315 113.878 81.9489 113.844 81.9489H113.279C113.251 81.9489 113.241 81.938 113.23 81.9141L112.92 80.8937H111.683L111.384 81.9076C111.378 81.938 111.363 81.9489 111.329 81.9489H110.827C110.789 81.9489 110.778 81.9315 110.789 81.8967L111.862 78.4288L111.864 78.4266ZM107.027 78.1242C107.027 78.0894 107.044 78.0894 107.065 78.0894H107.876C107.908 78.0894 107.915 78.0959 107.925 78.1242C108.082 78.7073 108.552 80.4847 108.654 81.0373H108.66C108.775 80.5304 109.308 78.7247 109.472 78.1285C109.478 78.0981 109.489 78.0872 109.516 78.0872H110.305C110.332 78.0872 110.337 78.0937 110.343 78.122L110.489 81.8967C110.496 81.9315 110.479 81.9445 110.451 81.9445H109.897C109.869 81.9445 109.859 81.938 109.859 81.9032C109.827 80.6348 109.814 78.9357 109.82 78.5811H109.81C109.695 79.1228 109.147 81.1004 108.928 81.9032C108.922 81.938 108.9 81.9445 108.879 81.9445H108.374C108.342 81.9445 108.329 81.938 108.325 81.9032C108.095 81.0069 107.666 79.2599 107.52 78.5767H107.509C107.509 79.125 107.454 80.6522 107.405 81.9032C107.405 81.938 107.394 81.9445 107.36 81.9445H106.859C106.827 81.9445 106.816 81.938 106.821 81.9032L107.027 78.122V78.1242ZM103.87 78.1416C103.87 78.1177 103.876 78.0937 103.902 78.0937C104.267 78.0829 104.505 78.0763 104.915 78.0763C105.748 78.0763 106.249 78.4766 106.249 79.2207C106.249 79.7407 105.939 80.0931 105.563 80.2476C105.737 80.5195 106.368 81.5747 106.525 81.888C106.542 81.9163 106.547 81.9467 106.515 81.9467H105.888C105.843 81.9467 105.833 81.9358 105.818 81.9163C105.665 81.6443 105.289 80.9612 105.051 80.5369C105.013 80.4651 104.985 80.4369 104.926 80.4369H104.469V81.9054C104.469 81.9358 104.458 81.9467 104.431 81.9467H103.908C103.876 81.9467 103.87 81.9358 103.87 81.8989V78.1416ZM101.703 78.0306C102.703 78.0306 103.281 78.8857 103.288 79.9887C103.294 81.2396 102.646 82.0011 101.699 82.0011C100.702 82.0011 100.109 81.1874 100.109 80.0061C100.109 78.8247 100.757 78.0306 101.705 78.0306H101.703ZM97.643 78.1307C97.643 78.1003 97.6494 78.0894 97.6749 78.0894H99.6782C99.7058 78.0894 99.7164 78.0959 99.7207 78.1307L99.7696 78.6442C99.7759 78.679 99.7632 78.692 99.7313 78.692H98.2506V79.7602H99.5784C99.606 79.7602 99.6166 79.7711 99.6166 79.8016V80.3215C99.6166 80.352 99.606 80.3629 99.5784 80.3629H98.2506V81.9032C98.2506 81.938 98.24 81.9511 98.2123 81.9511H97.6727C97.6451 81.9511 97.6409 81.9337 97.6409 81.9032V78.1329L97.643 78.1307ZM94.11 78.1307C94.11 78.1003 94.1164 78.0894 94.1419 78.0894H94.8557C94.894 78.0894 94.9003 78.0959 94.9152 78.1307C95.3019 78.9031 96.124 80.6153 96.2982 81.0395H96.3046C96.2982 80.8676 96.2876 80.6392 96.2876 80.1192V78.1372C96.2876 78.1024 96.2982 78.0894 96.3301 78.0894H96.8208C96.8527 78.0894 96.8633 78.1003 96.8633 78.1372V81.8945C96.8633 81.9358 96.8527 81.9467 96.8081 81.9467H96.1708C96.1325 81.9467 96.1155 81.9402 96.1006 81.9054C95.833 81.3027 94.8536 79.3621 94.6582 78.8073H94.6518C94.673 79.0902 94.6794 79.3795 94.6794 79.8995V81.8989C94.6794 81.9337 94.6688 81.9467 94.6412 81.9467H94.1504C94.1185 81.9467 94.1058 81.9402 94.1058 81.8989V78.1285L94.11 78.1307ZM92.7228 78.1307C92.7228 78.0959 92.7334 78.0894 92.761 78.0894H93.2943C93.3219 78.0894 93.3325 78.1003 93.3325 78.1307V81.901C93.3325 81.9358 93.3219 81.9489 93.2943 81.9489H92.761C92.7292 81.9489 92.7228 81.938 92.7228 81.901V78.1307ZM88.1446 78.1416C88.1446 78.1133 88.151 78.1003 88.1765 78.0937C88.3231 78.0872 88.6778 78.0763 89.1389 78.0763C90.3583 78.0763 90.9786 78.8487 90.9786 79.9473C90.9786 81.4224 89.978 81.9598 89.1176 81.9598C88.8011 81.9598 88.3401 81.9598 88.1701 81.9489C88.1489 81.9489 88.1425 81.9315 88.1425 81.8967V78.1438L88.1446 78.1416ZM84.6117 78.1307C84.6117 78.1003 84.618 78.0894 84.6435 78.0894H85.3573C85.3956 78.0894 85.402 78.0959 85.4168 78.1307C85.8035 78.9031 86.6256 80.6153 86.7998 81.0395H86.8062C86.7998 80.8676 86.7892 80.6392 86.7892 80.1192V78.1372C86.7892 78.1024 86.7998 78.0894 86.8317 78.0894H87.3225C87.3543 78.0894 87.3649 78.1003 87.3649 78.1372V81.8945C87.3649 81.9358 87.3543 81.9467 87.3097 81.9467H86.6724C86.6341 81.9467 86.6171 81.9402 86.6023 81.9054C86.3346 81.3027 85.3552 79.3621 85.1598 78.8073H85.1534C85.1746 79.0902 85.181 79.3795 85.181 79.8995V81.8989C85.181 81.9337 85.1704 81.9467 85.1428 81.9467H84.652C84.6202 81.9467 84.6074 81.9402 84.6074 81.8989V78.1285L84.6117 78.1307ZM82.1962 78.4266C82.2132 78.3679 82.228 78.3156 82.2344 78.1264C82.2344 78.1024 82.245 78.0916 82.2663 78.0916H82.9737C83.0013 78.0916 83.0056 78.0981 83.012 78.1198L84.2038 81.901C84.2144 81.9315 84.2101 81.9489 84.1762 81.9489H83.6111C83.5834 81.9489 83.5728 81.938 83.5622 81.9141L83.252 80.8937H82.0156L81.7161 81.9076C81.7097 81.938 81.6948 81.9489 81.6608 81.9489H81.1595C81.1212 81.9489 81.1106 81.9315 81.1212 81.8967L82.1941 78.4288L82.1962 78.4266ZM77.5968 78.1372C77.5968 78.1024 77.6031 78.0894 77.635 78.0894H79.6277C79.6596 78.0894 79.6723 78.0959 79.6766 78.1242L79.7318 78.6376C79.7382 78.6681 79.7255 78.6898 79.6936 78.6898H78.2086V79.6754H79.5576C79.5789 79.6754 79.5959 79.6863 79.5959 79.7167V80.2367C79.5959 80.2715 79.5789 80.278 79.5534 80.278H78.2086V81.3463H79.7871C79.8189 81.3463 79.8253 81.3571 79.8189 81.3876L79.7488 81.901C79.7425 81.9358 79.7318 81.9489 79.7 81.9489H77.6435C77.6053 81.9489 77.5989 81.938 77.5989 81.901V78.1372H77.5968ZM75.9801 78.0306C76.3179 78.0306 76.6174 78.072 76.8022 78.1655C76.8235 78.1764 76.8341 78.196 76.8341 78.2308V78.7616C76.8341 78.7965 76.8128 78.803 76.7895 78.7921C76.56 78.6681 76.2945 78.6333 75.9886 78.6268C75.1452 78.6202 74.6884 79.1467 74.6884 80.0191C74.6884 80.8154 75.1069 81.418 75.9078 81.418C76.082 81.418 76.201 81.4006 76.3051 81.3658V80.4042L75.706 80.3868C75.6741 80.3803 75.6678 80.3694 75.6678 80.339V79.8494C75.6678 79.819 75.6784 79.8081 75.6996 79.8081H76.8745C76.9127 79.8081 76.9169 79.8255 76.9169 79.856V81.7683C76.9169 81.7966 76.9106 81.8097 76.8851 81.8205C76.526 81.9685 76.1776 82.0033 75.8781 82.0033C74.6544 82.0033 74.0553 81.1352 74.0553 80.0452C74.0553 78.8117 74.8286 78.0328 75.9758 78.0328L75.9801 78.0306ZM71.8884 78.4266C71.9054 78.3679 71.9203 78.3156 71.9266 78.1264C71.9266 78.1024 71.9373 78.0916 71.9585 78.0916H72.6659C72.6936 78.0916 72.6978 78.0981 72.7042 78.1198L73.896 81.901C73.9066 81.9315 73.9024 81.9489 73.8684 81.9489H73.3033C73.2757 81.9489 73.265 81.938 73.2544 81.9141L72.9442 80.8937H71.7078L71.4083 81.9076C71.4019 81.938 71.387 81.9489 71.353 81.9489H70.8517C70.8134 81.9489 70.8028 81.9315 70.8134 81.8967L71.8863 78.4288L71.8884 78.4266ZM67.0489 78.1242C67.0489 78.0894 67.0659 78.0894 67.0872 78.0894H67.8987C67.9306 78.0894 67.9369 78.0959 67.9476 78.1242C68.1048 78.7073 68.5743 80.4847 68.6762 81.0373H68.6826C68.7973 80.5304 69.3306 78.7247 69.4941 78.1285C69.5005 78.0981 69.5111 78.0872 69.5388 78.0872H70.3269C70.3545 78.0872 70.3588 78.0937 70.3652 78.122L70.5118 81.8967C70.5181 81.9315 70.5011 81.9445 70.4735 81.9445H69.919C69.8914 81.9445 69.8808 81.938 69.8808 81.9032C69.8489 80.6348 69.8362 78.9357 69.8426 78.5811H69.8319C69.7172 79.1228 69.167 81.1004 68.9503 81.9032C68.9439 81.938 68.9227 81.9445 68.9014 81.9445H68.3958C68.3639 81.9445 68.3512 81.938 68.3469 81.9032C68.1175 81.0069 67.6884 79.2599 67.5418 78.5767H67.5312C67.5312 79.125 67.4759 80.6522 67.4271 81.9032C67.4271 81.938 67.4164 81.9445 67.3825 81.9445H66.8811C66.8492 81.9445 66.8365 81.938 66.8428 81.9032L67.0489 78.122V78.1242ZM65.5193 78.1307C65.5193 78.0959 65.5299 78.0894 65.5576 78.0894H66.0908C66.1184 78.0894 66.129 78.1003 66.129 78.1307V81.901C66.129 81.9358 66.1184 81.9489 66.0908 81.9489H65.5576C65.5257 81.9489 65.5193 81.938 65.5193 81.901V78.1307ZM61.3066 78.1416C61.3066 78.1177 61.3129 78.0937 61.3384 78.0937C61.7038 78.0829 61.9418 78.0763 62.3518 78.0763C63.1846 78.0763 63.6859 78.4766 63.6859 79.2207C63.6859 79.7407 63.3758 80.0931 62.9997 80.2476C63.1739 80.5195 63.8049 81.5747 63.9621 81.888C63.9791 81.9163 63.9833 81.9467 63.9515 81.9467H63.3248C63.2802 81.9467 63.2695 81.9358 63.2547 81.9163C63.1017 81.6443 62.7278 80.9612 62.4877 80.5369C62.4495 80.4651 62.4219 80.4369 62.3624 80.4369H61.9056V81.9054C61.9056 81.9358 61.895 81.9467 61.8674 81.9467H61.3448C61.3129 81.9467 61.3066 81.9358 61.3066 81.8989V78.1416ZM60.0977 78.0306C60.4249 78.0306 60.631 78.0611 60.7563 78.1242C60.7776 78.1351 60.7882 78.1547 60.7882 78.1895V78.7138C60.7882 78.7551 60.7669 78.7551 60.7457 78.7486C60.5885 78.6659 60.3591 78.6246 60.0871 78.6246C59.3521 78.6246 58.8741 79.1554 58.8741 79.9996C58.8741 81.0613 59.5539 81.4028 60.0935 81.4028C60.3484 81.4028 60.5354 81.3789 60.7202 81.3093C60.7414 81.3027 60.7584 81.3027 60.7584 81.3375V81.8336C60.7584 81.8684 60.7478 81.8923 60.7202 81.8989C60.5566 81.975 60.3017 81.9989 60.0191 81.9989C59.0716 81.9989 58.2389 81.3854 58.2389 80.0235C58.2389 78.8378 58.9675 78.0285 60.0999 78.0285L60.0977 78.0306ZM56.0698 78.4266C56.0868 78.3679 56.1017 78.3156 56.108 78.1264C56.108 78.1024 56.1187 78.0916 56.1399 78.0916H56.8473C56.875 78.0916 56.8792 78.0981 56.8856 78.1198L58.0774 81.901C58.088 81.9315 58.0838 81.9489 58.0498 81.9489H57.4847C57.4571 81.9489 57.4464 81.938 57.4358 81.9141L57.1257 80.8937H55.8892L55.5897 81.9076C55.5833 81.938 55.5684 81.9489 55.5344 81.9489H55.0331C54.9948 81.9489 54.9842 81.9315 54.9948 81.8967L56.0677 78.4288L56.0698 78.4266Z" fill="#988556"/>
<path d="M56.5054 78.6509H56.499C56.4119 79.0403 56.2101 79.7365 56.0465 80.2913H56.9664C56.8581 79.8953 56.601 79.0642 56.5033 78.6509H56.5054Z" fill="#988556"/>
<path d="M139.42 78.6509H139.414C139.326 79.0403 139.125 79.7365 138.961 80.2913H139.881C139.773 79.8953 139.516 79.0642 139.418 78.6509H139.42Z" fill="#988556"/>
<path d="M82.6317 78.6509H82.6253C82.5382 79.0403 82.3364 79.7365 82.1728 80.2913H83.0927C82.9844 79.8953 82.7273 79.0642 82.6296 78.6509H82.6317Z" fill="#988556"/>
<path d="M101.72 81.4119C102.313 81.4119 102.657 80.8571 102.657 80.0086C102.65 79.1645 102.298 78.6293 101.692 78.6293C101.142 78.6293 100.74 79.1079 100.74 80.0086C100.74 80.794 101.078 81.4119 101.72 81.4119Z" fill="#988556"/>
<path d="M72.3217 78.6509H72.3153C72.2282 79.0403 72.0264 79.7365 71.8628 80.2913H72.7827C72.6744 79.8953 72.4173 79.0642 72.3196 78.6509H72.3217Z" fill="#988556"/>
<path d="M105.633 79.258C105.633 78.8577 105.355 78.6554 104.894 78.6554C104.719 78.6554 104.556 78.6663 104.469 78.6728V79.865H104.925C105.372 79.865 105.633 79.6344 105.633 79.258Z" fill="#988556"/>
<path d="M90.3433 79.9651C90.3497 79.0753 89.8377 78.6554 89.1345 78.6554C88.9922 78.6554 88.8796 78.6619 88.7543 78.6663V81.3684C88.8584 81.3749 88.971 81.3793 89.1027 81.3793C89.8313 81.3793 90.3433 80.8963 90.3433 79.9629V79.9651Z" fill="#988556"/>
<path d="M112.299 78.6509H112.293C112.206 79.0403 112.004 79.7365 111.84 80.2913H112.76C112.652 79.8953 112.395 79.0642 112.297 78.6509H112.299Z" fill="#988556"/>
<path d="M63.0698 79.258C63.0698 78.8577 62.7915 78.6554 62.3305 78.6554C62.1563 78.6554 61.9927 78.6663 61.9056 78.6728V79.865H62.3624C62.8085 79.865 63.0698 79.6344 63.0698 79.258Z" fill="#988556"/>
<path d="M119.467 81.4119C120.06 81.4119 120.404 80.8571 120.404 80.0086C120.398 79.1645 120.045 78.6293 119.44 78.6293C118.889 78.6293 118.488 79.1079 118.488 80.0086C118.488 80.794 118.826 81.4119 119.467 81.4119Z" fill="#988556"/>
<path d="M99.179 52.3284H93.7064L96.4427 57.9305L99.179 52.3284Z" fill="#988556"/>
</svg>
