<svg width="200" height="136" viewBox="0 0 200 136" fill="none" xmlns="http://www.w3.org/2000/svg">
<rect width="200" height="136" fill="#0E2A65"/>
<rect width="200" height="136" fill="#0E2A65"/>
<path d="M53.3164 73.8134H58.2026V57.3877H67.0191V52.3838H44.5V57.3877H53.3164V73.8134Z" fill="white"/>
<path d="M99.2045 60.5422H94.3183V73.8134H99.2045V60.5422Z" fill="white"/>
<path d="M116.412 52.2749H111.951L100.691 73.8133H127.672L116.412 52.2749ZM113.874 59.2216L118.753 68.8094H108.979L113.876 59.2216H113.874Z" fill="white"/>
<path d="M153.482 52.0095C152.369 52.0095 151.464 52.9363 151.464 54.0763C151.464 55.2164 152.369 56.1432 153.482 56.1432C154.595 56.1432 155.5 55.2164 155.5 54.0763C155.5 52.9363 154.595 52.0095 153.482 52.0095ZM153.482 55.708C152.602 55.708 151.888 54.977 151.888 54.0763C151.888 53.1756 152.602 52.4446 153.482 52.4446C154.361 52.4446 155.075 53.1756 155.075 54.0763C155.075 54.977 154.361 55.708 153.482 55.708Z" fill="white"/>
<path d="M154.179 53.735C154.179 53.3673 153.919 53.1084 153.548 53.1084H152.768V55.0403H153.189V54.3594H153.359L153.786 55.0403H154.287L153.811 54.3028C154.013 54.2267 154.179 54.0396 154.179 53.7328V53.735ZM153.966 53.735C153.966 53.8437 153.936 53.9264 153.89 53.9873C153.936 53.9177 153.964 53.8307 153.964 53.735C153.964 53.6197 153.926 53.5196 153.86 53.4456C153.928 53.5174 153.966 53.6153 153.966 53.735ZM153.522 53.9569H153.189V53.5174H153.522C153.66 53.5174 153.749 53.6023 153.749 53.735C153.749 53.8677 153.66 53.9547 153.522 53.9547V53.9569Z" fill="white"/>
<path d="M144.243 52.2383H129.478V73.8137H144.243C148.819 73.8137 152.528 69.0404 152.528 63.1532C152.528 63.1337 152.528 63.1119 152.528 63.0923C152.528 63.0727 152.528 63.051 152.528 63.0314C152.528 57.0703 148.819 52.2383 144.243 52.2383ZM147.357 63.6166C147.357 65.3854 146.492 66.9475 145.173 67.8852C144.423 68.4639 143.499 68.812 142.496 68.812H134.559C134.485 68.812 134.417 68.7815 134.364 68.7358V57.3814C134.417 57.3335 134.485 57.3031 134.559 57.3031H142.125C142.18 57.3031 142.233 57.2987 142.288 57.2987C142.343 57.2987 142.399 57.3009 142.452 57.3031H142.496C143.416 57.3031 144.272 57.5946 144.986 58.0972C146.41 59.0153 147.357 60.6404 147.357 62.4919V63.6166Z" fill="white"/>
<path d="M83.8723 66.5251L83.9105 66.5597H86.2091C86.377 66.5597 86.5405 66.5424 86.702 66.5186C86.6574 66.5207 86.6107 66.5251 86.566 66.5251H83.8744H83.8723Z" fill="white"/>
<path d="M73.1798 66.5249H76.0117L84.1207 73.8132H91.9811L83.9104 66.5597L83.8721 66.5249H86.5638C86.6105 66.5249 86.6551 66.5206 86.6998 66.5184C87.2734 66.4858 87.7938 66.2508 88.1954 65.881C89.0111 65.2587 89.5401 64.2667 89.5401 63.1462V55.8232C89.5401 54.8311 89.1237 53.9391 88.463 53.3169C88.0148 52.7491 87.3307 52.3857 86.5617 52.3857H68.2915V73.8154H73.1777V66.5271L73.1798 66.5249ZM73.1777 57.3679H83.7999C83.9762 57.3679 84.1207 57.5158 84.1207 57.6964V61.1947C84.1207 61.3753 83.9762 61.5232 83.7999 61.5232H73.1777V57.37V57.3679Z" fill="white"/>
<path d="M53.3165 83.9901H152.528V75.9404H53.3165V83.9901ZM148.271 78.1378C148.271 78.103 148.277 78.0899 148.309 78.0899H150.302C150.333 78.0899 150.346 78.0964 150.35 78.1247L150.406 78.6382C150.412 78.6686 150.399 78.6904 150.367 78.6904H148.882V79.6759H150.231C150.253 79.6759 150.27 79.6868 150.27 79.7173V80.2372C150.27 80.272 150.253 80.2786 150.225 80.2786H148.88V81.3468H150.459C150.491 81.3468 150.497 81.3577 150.491 81.3881L150.42 81.9016C150.414 81.9364 150.403 81.9494 150.372 81.9494H148.315C148.277 81.9494 148.273 81.9385 148.273 81.9016V78.1378H148.271ZM146.654 78.0312C146.992 78.0312 147.291 78.0725 147.476 78.1661C147.497 78.1769 147.508 78.1965 147.508 78.2313V78.7622C147.508 78.797 147.487 78.8035 147.465 78.7926C147.236 78.6686 146.97 78.6338 146.664 78.6273C145.821 78.6208 145.364 79.1473 145.364 80.0197C145.364 80.8159 145.783 81.4186 146.584 81.4186C146.758 81.4186 146.877 81.4012 146.981 81.3664V80.4048L146.382 80.3873C146.35 80.3808 146.344 80.3699 146.344 80.3395V79.85C146.344 79.8195 146.354 79.8086 146.376 79.8086H147.55C147.589 79.8086 147.595 79.826 147.595 79.8565V81.7689C147.595 81.7971 147.589 81.8102 147.563 81.8211C147.204 81.969 146.856 82.0038 146.556 82.0038C145.332 82.0038 144.733 81.1358 144.733 80.0458C144.733 78.8122 145.507 78.0334 146.654 78.0334V78.0312ZM141.402 78.1313C141.402 78.1008 141.409 78.0899 141.434 78.0899H142.148C142.186 78.0899 142.193 78.0964 142.207 78.1313C142.594 78.9036 143.416 80.6158 143.59 81.04H143.597C143.59 80.8682 143.58 80.6397 143.58 80.1198V78.1378C143.58 78.103 143.59 78.0899 143.624 78.0899H144.115C144.147 78.0899 144.16 78.1008 144.16 78.1378V81.895C144.16 81.9364 144.149 81.9473 144.105 81.9473H143.467C143.429 81.9473 143.412 81.9407 143.397 81.9059C143.132 81.3033 142.15 79.3626 141.955 78.8079H141.948C141.969 79.0907 141.976 79.38 141.976 79.9V81.8994C141.976 81.9342 141.965 81.9473 141.938 81.9473H141.447C141.415 81.9473 141.404 81.9407 141.404 81.8994V78.1291L141.402 78.1313ZM138.985 78.4271C139.002 78.3684 139.016 78.3162 139.023 78.1269C139.023 78.103 139.033 78.0921 139.055 78.0921H139.762C139.79 78.0921 139.794 78.0986 139.8 78.1204L140.992 81.9016C141.003 81.932 140.999 81.9494 140.965 81.9494H140.399C140.372 81.9494 140.361 81.9386 140.351 81.9146L140.04 80.8943H138.804L138.504 81.9081C138.498 81.9385 138.483 81.9494 138.449 81.9494H137.948C137.91 81.9494 137.899 81.932 137.91 81.8972L138.982 78.4293L138.985 78.4271ZM134.823 78.1378C134.823 78.103 134.833 78.0899 134.867 78.0899H135.39C135.422 78.0899 135.435 78.1008 135.435 78.1313V79.6411H136.898V78.1313C136.898 78.1008 136.909 78.0899 136.937 78.0899H137.476C137.498 78.0899 137.508 78.1008 137.508 78.1313V81.9016C137.508 81.9364 137.502 81.9494 137.47 81.9494H136.937C136.909 81.9494 136.898 81.9385 136.898 81.9016V80.2438H135.435V81.9016C135.435 81.932 135.424 81.9494 135.39 81.9494H134.867C134.836 81.9494 134.823 81.9385 134.823 81.9016V78.1378ZM133.614 78.0312C133.941 78.0312 134.147 78.0616 134.273 78.1247C134.294 78.1356 134.304 78.1552 134.304 78.19V78.7143C134.304 78.7557 134.283 78.7557 134.26 78.7491C134.103 78.6665 133.873 78.6251 133.601 78.6251C132.866 78.6251 132.388 79.156 132.388 80.0001C132.388 81.0618 133.068 81.4034 133.608 81.4034C133.863 81.4034 134.05 81.3794 134.234 81.3098C134.256 81.3033 134.273 81.3033 134.273 81.3381V81.8341C134.273 81.8689 134.262 81.8929 134.234 81.8994C134.071 81.9755 133.816 81.9995 133.531 81.9995C132.584 81.9995 131.751 81.3859 131.751 80.024C131.751 78.8383 132.48 78.029 133.612 78.029L133.614 78.0312ZM128.785 81.895L129.813 80.0131L128.813 78.1378C128.796 78.1139 128.813 78.0899 128.834 78.0899H129.448C129.48 78.0899 129.497 78.0964 129.507 78.1247C129.748 78.6142 130.009 79.0972 130.243 79.5867H130.249C130.478 79.0972 130.733 78.6142 130.973 78.1291C130.984 78.0986 130.995 78.0877 131.033 78.0877H131.6C131.632 78.0877 131.638 78.1051 131.621 78.14L130.631 79.9566L131.694 81.8863C131.711 81.9146 131.7 81.9385 131.666 81.9451H131.052C131.007 81.9451 130.992 81.9342 130.975 81.8972C130.721 81.4142 130.463 80.9247 130.202 80.4113H130.196C129.956 80.9073 129.705 81.4142 129.461 81.9037C129.444 81.9342 129.429 81.9451 129.395 81.9451H128.806C128.775 81.9451 128.768 81.9146 128.785 81.8929V81.895ZM126.321 78.1378C126.321 78.103 126.327 78.0899 126.359 78.0899H128.352C128.384 78.0899 128.396 78.0964 128.401 78.1247L128.456 78.6382C128.462 78.6686 128.45 78.6904 128.418 78.6904H126.933V79.6759H128.282C128.303 79.6759 128.32 79.6868 128.32 79.7173V80.2372C128.32 80.272 128.303 80.2786 128.275 80.2786H126.931V81.3468H128.509C128.541 81.3468 128.547 81.3577 128.541 81.3881L128.471 81.9016C128.464 81.9364 128.454 81.9494 128.422 81.9494H126.365C126.327 81.9494 126.323 81.9385 126.323 81.9016V78.1378H126.321ZM121.617 78.1313C121.617 78.1008 121.624 78.0899 121.649 78.0899H122.363C122.401 78.0899 122.408 78.0964 122.422 78.1313C122.809 78.9036 123.631 80.6158 123.805 81.04H123.812C123.805 80.8682 123.795 80.6397 123.795 80.1198V78.1378C123.795 78.103 123.805 78.0899 123.839 78.0899H124.33C124.362 78.0899 124.375 78.1008 124.375 78.1378V81.895C124.375 81.9364 124.364 81.9473 124.32 81.9473H123.682C123.644 81.9473 123.627 81.9407 123.612 81.9059C123.347 81.3033 122.365 79.3626 122.17 78.8079H122.163C122.185 79.0907 122.191 79.38 122.191 79.9V81.8994C122.191 81.9342 122.18 81.9473 122.153 81.9473H121.662C121.63 81.9473 121.619 81.9407 121.619 81.8994V78.1291L121.617 78.1313ZM119.453 78.0312C120.453 78.0312 121.031 78.8862 121.037 79.9892C121.044 81.2402 120.396 82.0016 119.448 82.0016C118.452 82.0016 117.859 81.188 117.859 80.0066C117.859 78.8253 118.507 78.0312 119.455 78.0312H119.453ZM116.669 78.1313C116.669 78.0964 116.68 78.0899 116.708 78.0899H117.241C117.269 78.0899 117.279 78.1008 117.279 78.1313V81.9016C117.279 81.9364 117.269 81.9494 117.241 81.9494H116.708C116.676 81.9494 116.669 81.9385 116.669 81.9016V78.1313ZM113.574 78.1313C113.581 78.1008 113.591 78.0899 113.623 78.0899H116.187C116.219 78.0899 116.232 78.1008 116.236 78.1378L116.285 78.6382C116.291 78.673 116.274 78.6904 116.247 78.6904H115.201V81.8929C115.201 81.9277 115.185 81.9451 115.157 81.9451H114.634C114.602 81.9516 114.585 81.9342 114.585 81.8972V78.6882H113.536C113.508 78.6882 113.504 78.6708 113.508 78.6403L113.574 78.1269V78.1313ZM111.864 78.4271C111.881 78.3684 111.896 78.3162 111.902 78.1269C111.902 78.103 111.913 78.0921 111.934 78.0921H112.642C112.669 78.0921 112.673 78.0986 112.68 78.1204L113.872 81.9016C113.882 81.932 113.878 81.9494 113.844 81.9494H113.279C113.251 81.9494 113.241 81.9386 113.23 81.9146L112.92 80.8943H111.683L111.384 81.9081C111.377 81.9385 111.363 81.9494 111.329 81.9494H110.827C110.789 81.9494 110.778 81.932 110.789 81.8972L111.862 78.4293L111.864 78.4271ZM107.027 78.1247C107.027 78.0899 107.044 78.0899 107.065 78.0899H107.876C107.908 78.0899 107.915 78.0964 107.925 78.1247C108.082 78.7078 108.552 80.4852 108.654 81.0379H108.66C108.775 80.5309 109.308 78.7252 109.472 78.1291C109.478 78.0986 109.489 78.0877 109.516 78.0877H110.305C110.332 78.0877 110.337 78.0943 110.343 78.1226L110.489 81.8972C110.496 81.932 110.479 81.9451 110.451 81.9451H109.897C109.869 81.9451 109.859 81.9385 109.859 81.9037C109.827 80.6354 109.814 78.9362 109.82 78.5816H109.81C109.695 79.1233 109.147 81.1009 108.928 81.9037C108.922 81.9385 108.9 81.9451 108.879 81.9451H108.374C108.342 81.9451 108.329 81.9385 108.325 81.9037C108.095 81.0074 107.666 79.2604 107.52 78.5773H107.509C107.509 79.1255 107.454 80.6528 107.405 81.9037C107.405 81.9385 107.394 81.9451 107.36 81.9451H106.859C106.827 81.9451 106.816 81.9385 106.821 81.9037L107.027 78.1226V78.1247ZM103.87 78.1421C103.87 78.1182 103.876 78.0943 103.902 78.0943C104.267 78.0834 104.505 78.0769 104.915 78.0769C105.748 78.0769 106.249 78.4772 106.249 79.2212C106.249 79.7412 105.939 80.0936 105.563 80.2481C105.737 80.5201 106.368 81.5752 106.525 81.8885C106.542 81.9168 106.547 81.9473 106.515 81.9473H105.888C105.843 81.9473 105.833 81.9364 105.818 81.9168C105.665 81.6448 105.289 80.9617 105.051 80.5375C105.013 80.4657 104.985 80.4374 104.926 80.4374H104.469V81.9059C104.469 81.9364 104.458 81.9473 104.431 81.9473H103.908C103.876 81.9473 103.87 81.9364 103.87 81.8994V78.1421ZM101.703 78.0312C102.703 78.0312 103.281 78.8862 103.288 79.9892C103.294 81.2402 102.646 82.0016 101.699 82.0016C100.702 82.0016 100.109 81.188 100.109 80.0066C100.109 78.8253 100.757 78.0312 101.705 78.0312H101.703ZM97.643 78.1313C97.643 78.1008 97.6494 78.0899 97.6749 78.0899H99.6782C99.7058 78.0899 99.7164 78.0964 99.7207 78.1313L99.7696 78.6447C99.7759 78.6795 99.7632 78.6926 99.7313 78.6926H98.2506V79.7608H99.5784C99.606 79.7608 99.6166 79.7717 99.6166 79.8021V80.3221C99.6166 80.3525 99.606 80.3634 99.5784 80.3634H98.2506V81.9037C98.2506 81.9385 98.24 81.9516 98.2123 81.9516H97.6727C97.6451 81.9516 97.6409 81.9342 97.6409 81.9037V78.1334L97.643 78.1313ZM94.11 78.1313C94.11 78.1008 94.1164 78.0899 94.1419 78.0899H94.8557C94.894 78.0899 94.9003 78.0964 94.9152 78.1313C95.3019 78.9036 96.124 80.6158 96.2982 81.04H96.3046C96.2982 80.8682 96.2876 80.6397 96.2876 80.1198V78.1378C96.2876 78.103 96.2982 78.0899 96.3301 78.0899H96.8208C96.8527 78.0899 96.8633 78.1008 96.8633 78.1378V81.895C96.8633 81.9364 96.8527 81.9473 96.8081 81.9473H96.1708C96.1325 81.9473 96.1155 81.9407 96.1006 81.9059C95.833 81.3033 94.8536 79.3626 94.6582 78.8079H94.6518C94.673 79.0907 94.6794 79.38 94.6794 79.9V81.8994C94.6794 81.9342 94.6688 81.9473 94.6412 81.9473H94.1504C94.1185 81.9473 94.1058 81.9407 94.1058 81.8994V78.1291L94.11 78.1313ZM92.7228 78.1313C92.7228 78.0964 92.7334 78.0899 92.761 78.0899H93.2943C93.3219 78.0899 93.3325 78.1008 93.3325 78.1313V81.9016C93.3325 81.9364 93.3219 81.9494 93.2943 81.9494H92.761C92.7292 81.9494 92.7228 81.9385 92.7228 81.9016V78.1313ZM88.1446 78.1421C88.1446 78.1139 88.151 78.1008 88.1765 78.0943C88.3231 78.0877 88.6779 78.0769 89.1389 78.0769C90.3583 78.0769 90.9786 78.8492 90.9786 79.9479C90.9786 81.4229 89.978 81.9603 89.1176 81.9603C88.8011 81.9603 88.3401 81.9603 88.1701 81.9494C88.1489 81.9494 88.1425 81.932 88.1425 81.8972V78.1443L88.1446 78.1421ZM84.6117 78.1313C84.6117 78.1008 84.618 78.0899 84.6435 78.0899H85.3573C85.3956 78.0899 85.402 78.0964 85.4168 78.1313C85.8035 78.9036 86.6256 80.6158 86.7998 81.04H86.8062C86.7998 80.8682 86.7892 80.6397 86.7892 80.1198V78.1378C86.7892 78.103 86.7998 78.0899 86.8317 78.0899H87.3225C87.3543 78.0899 87.3649 78.1008 87.3649 78.1378V81.895C87.3649 81.9364 87.3543 81.9473 87.3097 81.9473H86.6724C86.6341 81.9473 86.6171 81.9407 86.6023 81.9059C86.3346 81.3033 85.3552 79.3626 85.1598 78.8079H85.1534C85.1746 79.0907 85.181 79.38 85.181 79.9V81.8994C85.181 81.9342 85.1704 81.9473 85.1428 81.9473H84.652C84.6202 81.9473 84.6074 81.9407 84.6074 81.8994V78.1291L84.6117 78.1313ZM82.1962 78.4271C82.2132 78.3684 82.228 78.3162 82.2344 78.1269C82.2344 78.103 82.245 78.0921 82.2663 78.0921H82.9737C83.0013 78.0921 83.0056 78.0986 83.012 78.1204L84.2038 81.9016C84.2144 81.932 84.2101 81.9494 84.1762 81.9494H83.6111C83.5834 81.9494 83.5728 81.9386 83.5622 81.9146L83.252 80.8943H82.0156L81.7161 81.9081C81.7097 81.9385 81.6948 81.9494 81.6608 81.9494H81.1595C81.1212 81.9494 81.1106 81.932 81.1212 81.8972L82.1941 78.4293L82.1962 78.4271ZM77.5968 78.1378C77.5968 78.103 77.6031 78.0899 77.635 78.0899H79.6277C79.6596 78.0899 79.6723 78.0964 79.6766 78.1247L79.7318 78.6382C79.7382 78.6686 79.7255 78.6904 79.6936 78.6904H78.2086V79.6759H79.5576C79.5789 79.6759 79.5959 79.6868 79.5959 79.7173V80.2372C79.5959 80.272 79.5789 80.2786 79.5534 80.2786H78.2086V81.3468H79.7871C79.8189 81.3468 79.8253 81.3577 79.8189 81.3881L79.7488 81.9016C79.7425 81.9364 79.7318 81.9494 79.7 81.9494H77.6435C77.6053 81.9494 77.5989 81.9385 77.5989 81.9016V78.1378H77.5968ZM75.9801 78.0312C76.3179 78.0312 76.6174 78.0725 76.8022 78.1661C76.8235 78.1769 76.8341 78.1965 76.8341 78.2313V78.7622C76.8341 78.797 76.8128 78.8035 76.7895 78.7926C76.56 78.6686 76.2945 78.6338 75.9886 78.6273C75.1452 78.6208 74.6884 79.1473 74.6884 80.0197C74.6884 80.8159 75.1069 81.4186 75.9078 81.4186C76.082 81.4186 76.201 81.4012 76.3051 81.3664V80.4048L75.706 80.3873C75.6741 80.3808 75.6678 80.3699 75.6678 80.3395V79.85C75.6678 79.8195 75.6784 79.8086 75.6996 79.8086H76.8745C76.9127 79.8086 76.9169 79.826 76.9169 79.8565V81.7689C76.9169 81.7971 76.9106 81.8102 76.8851 81.8211C76.526 81.969 76.1776 82.0038 75.8781 82.0038C74.6544 82.0038 74.0553 81.1358 74.0553 80.0458C74.0553 78.8122 74.8286 78.0334 75.9758 78.0334L75.9801 78.0312ZM71.8884 78.4271C71.9054 78.3684 71.9203 78.3162 71.9266 78.1269C71.9266 78.103 71.9373 78.0921 71.9585 78.0921H72.6659C72.6936 78.0921 72.6978 78.0986 72.7042 78.1204L73.896 81.9016C73.9066 81.932 73.9024 81.9494 73.8684 81.9494H73.3033C73.2757 81.9494 73.265 81.9386 73.2544 81.9146L72.9442 80.8943H71.7078L71.4083 81.9081C71.4019 81.9385 71.387 81.9494 71.353 81.9494H70.8517C70.8134 81.9494 70.8028 81.932 70.8134 81.8972L71.8863 78.4293L71.8884 78.4271ZM67.0489 78.1247C67.0489 78.0899 67.0659 78.0899 67.0872 78.0899H67.8987C67.9306 78.0899 67.9369 78.0964 67.9476 78.1247C68.1048 78.7078 68.5743 80.4852 68.6762 81.0379H68.6826C68.7973 80.5309 69.3306 78.7252 69.4941 78.1291C69.5005 78.0986 69.5111 78.0877 69.5388 78.0877H70.3269C70.3545 78.0877 70.3588 78.0943 70.3652 78.1226L70.5118 81.8972C70.5181 81.932 70.5011 81.9451 70.4735 81.9451H69.919C69.8914 81.9451 69.8808 81.9385 69.8808 81.9037C69.8489 80.6354 69.8362 78.9362 69.8426 78.5816H69.8319C69.7172 79.1233 69.167 81.1009 68.9503 81.9037C68.9439 81.9385 68.9227 81.9451 68.9014 81.9451H68.3958C68.3639 81.9451 68.3512 81.9385 68.3469 81.9037C68.1175 81.0074 67.6884 79.2604 67.5418 78.5773H67.5312C67.5312 79.1255 67.4759 80.6528 67.4271 81.9037C67.4271 81.9385 67.4164 81.9451 67.3825 81.9451H66.8811C66.8492 81.9451 66.8365 81.9385 66.8428 81.9037L67.0489 78.1226V78.1247ZM65.5193 78.1313C65.5193 78.0964 65.5299 78.0899 65.5576 78.0899H66.0908C66.1184 78.0899 66.129 78.1008 66.129 78.1313V81.9016C66.129 81.9364 66.1184 81.9494 66.0908 81.9494H65.5576C65.5257 81.9494 65.5193 81.9385 65.5193 81.9016V78.1313ZM61.3066 78.1421C61.3066 78.1182 61.3129 78.0943 61.3384 78.0943C61.7038 78.0834 61.9418 78.0769 62.3518 78.0769C63.1846 78.0769 63.6859 78.4772 63.6859 79.2212C63.6859 79.7412 63.3758 80.0936 62.9997 80.2481C63.1739 80.5201 63.8049 81.5752 63.9621 81.8885C63.9791 81.9168 63.9833 81.9473 63.9515 81.9473H63.3248C63.2802 81.9473 63.2695 81.9364 63.2547 81.9168C63.1017 81.6448 62.7278 80.9617 62.4877 80.5375C62.4495 80.4657 62.4219 80.4374 62.3624 80.4374H61.9056V81.9059C61.9056 81.9364 61.895 81.9473 61.8674 81.9473H61.3448C61.3129 81.9473 61.3066 81.9364 61.3066 81.8994V78.1421ZM60.0977 78.0312C60.4249 78.0312 60.631 78.0616 60.7563 78.1247C60.7776 78.1356 60.7882 78.1552 60.7882 78.19V78.7143C60.7882 78.7557 60.7669 78.7557 60.7457 78.7491C60.5885 78.6665 60.3591 78.6251 60.0871 78.6251C59.3521 78.6251 58.8741 79.156 58.8741 80.0001C58.8741 81.0618 59.5539 81.4034 60.0935 81.4034C60.3484 81.4034 60.5354 81.3794 60.7202 81.3098C60.7414 81.3033 60.7584 81.3033 60.7584 81.3381V81.8341C60.7584 81.8689 60.7478 81.8929 60.7202 81.8994C60.5566 81.9755 60.3017 81.9995 60.0191 81.9995C59.0716 81.9995 58.2389 81.3859 58.2389 80.024C58.2389 78.8383 58.9675 78.029 60.0999 78.029L60.0977 78.0312ZM56.0698 78.4271C56.0868 78.3684 56.1017 78.3162 56.108 78.1269C56.108 78.103 56.1187 78.0921 56.1399 78.0921H56.8473C56.875 78.0921 56.8792 78.0986 56.8856 78.1204L58.0774 81.9016C58.088 81.932 58.0838 81.9494 58.0498 81.9494H57.4847C57.4571 81.9494 57.4464 81.9386 57.4358 81.9146L57.1257 80.8943H55.8892L55.5897 81.9081C55.5833 81.9385 55.5684 81.9494 55.5344 81.9494H55.0331C54.9948 81.9494 54.9842 81.932 54.9948 81.8972L56.0677 78.4293L56.0698 78.4271Z" fill="#BDA66E"/>
<path d="M56.5054 78.6514H56.499C56.4119 79.0408 56.2101 79.737 56.0465 80.2918H56.9664C56.858 79.8958 56.601 79.0647 56.5033 78.6514H56.5054Z" fill="#BDA66E"/>
<path d="M139.42 78.6514H139.414C139.326 79.0408 139.125 79.737 138.961 80.2918H139.881C139.773 79.8958 139.516 79.0647 139.418 78.6514H139.42Z" fill="#BDA66E"/>
<path d="M82.6317 78.6514H82.6253C82.5382 79.0408 82.3364 79.737 82.1728 80.2918H83.0927C82.9844 79.8958 82.7273 79.0647 82.6296 78.6514H82.6317Z" fill="#BDA66E"/>
<path d="M101.72 81.4125C102.313 81.4125 102.657 80.8577 102.657 80.0092C102.65 79.1651 102.298 78.6299 101.692 78.6299C101.142 78.6299 100.74 79.1085 100.74 80.0092C100.74 80.7946 101.078 81.4125 101.72 81.4125Z" fill="#BDA66E"/>
<path d="M72.3217 78.6514H72.3153C72.2282 79.0408 72.0264 79.737 71.8628 80.2918H72.7827C72.6744 79.8958 72.4173 79.0647 72.3196 78.6514H72.3217Z" fill="#BDA66E"/>
<path d="M105.633 79.2586C105.633 78.8583 105.355 78.656 104.894 78.656C104.719 78.656 104.556 78.6669 104.469 78.6734V79.8656H104.925C105.372 79.8656 105.633 79.635 105.633 79.2586Z" fill="#BDA66E"/>
<path d="M90.3433 79.9657C90.3497 79.0759 89.8377 78.656 89.1345 78.656C88.9922 78.656 88.8796 78.6625 88.7542 78.6669V81.369C88.8583 81.3755 88.9709 81.3799 89.1027 81.3799C89.8313 81.3799 90.3433 80.8969 90.3433 79.9635V79.9657Z" fill="#BDA66E"/>
<path d="M112.299 78.6514H112.293C112.206 79.0408 112.004 79.737 111.84 80.2918H112.76C112.652 79.8958 112.395 79.0647 112.297 78.6514H112.299Z" fill="#BDA66E"/>
<path d="M63.0698 79.2586C63.0698 78.8583 62.7915 78.656 62.3305 78.656C62.1563 78.656 61.9927 78.6669 61.9056 78.6734V79.8656H62.3624C62.8085 79.8656 63.0698 79.635 63.0698 79.2586Z" fill="#BDA66E"/>
<path d="M119.467 81.4125C120.06 81.4125 120.404 80.8577 120.404 80.0092C120.398 79.1651 120.045 78.6299 119.44 78.6299C118.889 78.6299 118.488 79.1085 118.488 80.0092C118.488 80.7946 118.826 81.4125 119.467 81.4125Z" fill="#BDA66E"/>
<path d="M99.179 52.3289H93.7064L96.4427 57.931L99.179 52.3289Z" fill="#BDA66E"/>
</svg>
