<svg width="200" height="136" viewBox="0 0 200 136" fill="none" xmlns="http://www.w3.org/2000/svg">
<rect width="200" height="136" fill="white"/>
<rect width="200" height="136" fill="white"/>
<g clip-path="url(#clip0_978_4157)">
<path d="M75.7649 55.5098C79.3306 55.5098 82.2212 52.7525 82.2212 49.3513C82.2212 45.9501 79.3306 43.1929 75.7649 43.1929C72.1992 43.1929 69.3086 45.9501 69.3086 49.3513C69.3086 52.7525 72.1992 55.5098 75.7649 55.5098Z" fill="#0E2A65" fill-opacity="0.41"/>
<path d="M65.8001 56.0678C65.1233 56.4066 63.7698 56.7482 62.0368 56.7482C58.0214 56.7482 55 54.1972 55 49.5022C55 44.8071 58.0214 41.9771 62.4417 41.9771C64.2172 41.9771 65.3385 42.3586 65.8228 42.6148L65.3782 44.1238C64.6816 43.785 63.6877 43.5288 62.504 43.5288C59.1654 43.5288 56.9454 45.6755 56.9454 49.4367C56.9454 52.9444 58.9531 55.1965 62.4191 55.1965C63.5404 55.1965 64.6816 54.963 65.4207 54.6015L65.8001 56.0678Z" fill="#0E2A65"/>
<path d="M90.3226 56.5375L85.673 42.2133H87.6608L89.8809 49.2686C90.4925 51.2018 91.0221 52.9443 91.4015 54.6242H91.444C91.8461 52.9671 92.4379 51.1591 93.0722 49.2885L95.482 42.2104H97.4472L92.353 56.5346H90.3226V56.5375Z" fill="#0E2A65"/>
<path d="M100.828 42.2104V56.5346H98.9905V42.2104H100.828Z" fill="#0E2A65"/>
<path d="M104.039 42.404C105.161 42.2332 106.492 42.1079 107.95 42.1079C110.592 42.1079 112.472 42.7229 113.721 43.8931C114.99 45.0633 115.729 46.7203 115.729 49.0351C115.729 51.3499 115.009 53.2859 113.679 54.6042C112.348 55.9424 110.147 56.6656 107.378 56.6656C106.067 56.6656 104.968 56.6029 104.039 56.4947V42.404ZM105.88 55.0711C106.344 55.1565 107.021 55.1765 107.74 55.1765C111.671 55.1765 113.806 52.9671 113.806 49.0977C113.829 45.7181 111.926 43.5714 108.035 43.5714C107.084 43.5714 106.364 43.6568 105.88 43.7621V55.0683V55.0711Z" fill="#0E2A65"/>
<path d="M122.579 50.0972V51.4781H117.357V50.0972H122.579Z" fill="#0E2A65"/>
<path d="M126.087 44.4654H126.045L123.657 45.7608L123.298 44.3373L126.299 42.7229H127.885V56.5374H126.09V44.4654H126.087Z" fill="#0E2A65"/>
<path d="M131.858 55.2192C132.26 55.2619 132.725 55.2192 133.359 55.1565C134.438 55.0085 135.452 54.5615 136.233 53.8184C137.142 52.9898 137.796 51.7769 138.051 50.1426H137.989C137.227 51.0765 136.128 51.6317 134.755 51.6317C132.283 51.6317 130.697 49.7611 130.697 47.4037C130.697 44.7899 132.577 42.4951 135.389 42.4951C138.201 42.4951 139.934 44.7899 139.934 48.3176C139.934 51.3555 138.92 53.4824 137.567 54.8006C136.511 55.8427 135.052 56.4805 133.571 56.6485C132.894 56.7538 132.303 56.7766 131.858 56.7538V55.2249V55.2192ZM132.535 47.2698C132.535 48.9924 133.571 50.2024 135.177 50.2024C136.423 50.2024 137.397 49.5874 137.881 48.7561C137.986 48.5852 138.051 48.3745 138.051 48.0756C138.051 45.7153 137.185 43.9102 135.239 43.9102C133.653 43.9102 132.535 45.3138 132.535 47.267V47.2698Z" fill="#0E2A65"/>
<path d="M84.9085 47.6002C84.6706 47.6002 84.461 47.8707 84.328 48.2864C84.0759 48.4202 83.5294 48.6594 82.7762 48.6822C82.7026 47.8707 82.4902 47.0991 82.1645 46.393C82.83 46.0314 83.4218 45.966 83.705 45.9574C84.0278 46.2507 84.3421 46.3788 84.5488 46.2592C84.8971 46.0571 84.7952 45.2285 84.3251 44.4085C83.8551 43.5886 83.1896 43.0874 82.8441 43.2868C82.6374 43.4063 82.5893 43.7451 82.6827 44.1722C82.5327 44.4142 82.1759 44.8983 81.5359 45.2969C81.08 44.6477 80.5136 44.0811 79.868 43.6227C80.2673 42.9736 80.7458 42.6177 80.9865 42.4668C81.4113 42.5607 81.7483 42.5123 81.8672 42.3045C82.0683 41.9543 81.5699 41.288 80.7515 40.8154C79.936 40.3428 79.112 40.2403 78.9109 40.5905C78.792 40.7983 78.9194 41.1144 79.2111 41.4389C79.2026 41.7236 79.1346 42.3244 78.775 42.9906C78.0727 42.6632 77.3053 42.4525 76.4983 42.3785C76.5209 41.6155 76.7588 41.066 76.8919 40.8126C77.3053 40.6787 77.5743 40.468 77.5743 40.2289C77.5743 39.8246 76.8098 39.5 75.8668 39.5C74.9239 39.5 74.1593 39.8274 74.1593 40.2289C74.1593 40.468 74.4283 40.6787 74.8417 40.8126C74.9748 41.066 75.2155 41.6183 75.2382 42.3785C74.4312 42.4525 73.6638 42.6632 72.9615 42.9906C72.6019 42.3187 72.5339 41.7236 72.5254 41.4389C72.8171 41.1144 72.9445 40.7983 72.8256 40.5905C72.6245 40.2403 71.8005 40.3428 70.985 40.8154C70.1694 41.288 69.6711 41.9571 69.8693 42.3045C69.9882 42.5123 70.3252 42.5607 70.7499 42.4668C70.9906 42.6177 71.472 42.9764 71.8685 43.6227C71.2228 44.0811 70.6565 44.6477 70.2006 45.2969C69.555 44.8983 69.201 44.4142 69.0509 44.1722C69.1444 43.7451 69.0962 43.4063 68.8895 43.2868C68.5412 43.0846 67.8786 43.5857 67.4085 44.4085C66.9385 45.2285 66.8365 46.0571 67.1848 46.2592C67.3915 46.3788 67.7059 46.2507 68.0287 45.9574C68.3118 45.966 68.9065 46.0343 69.5691 46.393C69.2435 47.0991 69.0311 47.8707 68.9575 48.6822C68.2014 48.6594 67.6549 48.4202 67.4057 48.2864C67.2726 47.8707 67.0631 47.6002 66.8252 47.6002C66.4231 47.6002 66.1003 48.369 66.1003 49.3171C66.1003 50.2652 66.4259 51.0339 66.8252 51.0339C67.0631 51.0339 67.2726 50.7635 67.4057 50.3478C67.6549 50.2139 68.2042 49.9748 68.9546 49.952C69.0254 50.7635 69.2378 51.5379 69.5635 52.244C68.898 52.6027 68.309 52.6682 68.0287 52.6796C67.7059 52.3863 67.3915 52.2582 67.1848 52.3778C66.8365 52.58 66.9385 53.4085 67.4085 54.2285C67.8786 55.0485 68.544 55.5496 68.8895 55.3503C69.0962 55.2307 69.1444 54.8919 69.0509 54.4648C69.201 54.2228 69.555 53.7416 70.1921 53.343C70.648 53.995 71.2143 54.5616 71.86 55.0228C71.4635 55.6663 70.9878 56.0193 70.7471 56.1702C70.3223 56.0763 69.9854 56.1247 69.8664 56.3325C69.6654 56.6827 70.1638 57.349 70.9821 57.8216C71.7977 58.2942 72.6217 58.3967 72.8227 58.0465C72.9417 57.8387 72.8142 57.5227 72.5226 57.1981C72.5311 56.9134 72.599 56.3183 72.953 55.6549C73.6581 55.9823 74.4255 56.1959 75.2354 56.2699C75.2127 57.0273 74.9748 57.5711 74.8417 57.8216C74.4283 57.9554 74.1593 58.1661 74.1593 58.4053C74.1593 58.8096 74.9239 59.1342 75.8668 59.1342C76.8098 59.1342 77.5743 58.8067 77.5743 58.4053C77.5743 58.1661 77.3053 57.9554 76.8919 57.8216C76.7588 57.5711 76.5209 57.0216 76.4983 56.2699C77.3082 56.1959 78.0756 55.9852 78.7806 55.6549C79.1346 56.3212 79.2026 56.9134 79.2111 57.1981C78.9194 57.5227 78.792 57.8387 78.9109 58.0465C79.112 58.3967 79.936 58.2942 80.7515 57.8216C81.567 57.349 82.0654 56.6799 81.8672 56.3325C81.7483 56.1247 81.4113 56.0763 80.9865 56.1702C80.7458 56.0193 80.2673 55.6635 79.8737 55.0228C80.5193 54.5616 81.0857 53.995 81.5416 53.343C82.1815 53.7416 82.5355 54.2228 82.6827 54.4619C82.5893 54.889 82.6374 55.2278 82.8441 55.3474C83.1924 55.5496 83.8551 55.0485 84.3251 54.2256C84.7952 53.4056 84.8971 52.5771 84.5488 52.375C84.3421 52.2554 84.0278 52.3835 83.705 52.6768C83.4218 52.6682 82.83 52.5999 82.1674 52.244C82.493 51.535 82.7026 50.7635 82.7762 49.952C83.5322 49.9748 84.0759 50.2139 84.3251 50.3478C84.4582 50.7635 84.6678 51.0339 84.9056 51.0339C85.3077 51.0339 85.6305 50.2652 85.6305 49.3171C85.6305 48.369 85.3049 47.6002 84.9056 47.6002H84.9085ZM78.1237 45.3709C78.5853 44.9068 79.3357 44.9068 79.7972 45.3709C80.2588 45.835 80.2588 46.5895 79.7972 47.0536C79.3357 47.5177 78.5853 47.5177 78.1237 47.0536C77.6621 46.5895 77.6621 45.835 78.1237 45.3709ZM75.8725 43.7366C76.5266 43.7366 77.0561 44.269 77.0561 44.9267C77.0561 45.5844 76.5266 46.1169 75.8725 46.1169C75.2184 46.1169 74.6888 45.5844 74.6888 44.9267C74.6888 44.269 75.2184 43.7366 75.8725 43.7366ZM70.3223 49.3171C70.3223 48.6594 70.8519 48.127 71.506 48.127C72.1601 48.127 72.6897 48.6594 72.6897 49.3171C72.6897 49.9748 72.1601 50.5072 71.506 50.5072C70.8519 50.5072 70.3223 49.9748 70.3223 49.3171ZM73.6213 53.2633C73.1597 53.7274 72.4093 53.7274 71.9477 53.2633C71.4862 52.7992 71.4862 52.0447 71.9477 51.5806C72.4093 51.1165 73.1597 51.1165 73.6213 51.5806C74.0829 52.0447 74.0829 52.7992 73.6213 53.2633ZM73.6213 47.0536C73.1597 47.5177 72.4093 47.5177 71.9477 47.0536C71.4862 46.5895 71.4862 45.835 71.9477 45.3709C72.4093 44.9068 73.1597 44.9068 73.6213 45.3709C74.0829 45.835 74.0829 46.5895 73.6213 47.0536ZM75.8725 54.8976C75.2184 54.8976 74.6888 54.3651 74.6888 53.7074C74.6888 53.0497 75.2184 52.5173 75.8725 52.5173C76.5266 52.5173 77.0561 53.0497 77.0561 53.7074C77.0561 54.3651 76.5266 54.8976 75.8725 54.8976ZM75.8725 50.7521C75.0881 50.7521 74.4538 50.1143 74.4538 49.3256C74.4538 48.537 75.0881 47.8992 75.8725 47.8992C76.6569 47.8992 77.2912 48.537 77.2912 49.3256C77.2912 50.1143 76.6569 50.7521 75.8725 50.7521ZM79.7944 53.2633C79.3328 53.7274 78.5824 53.7274 78.1209 53.2633C77.6593 52.7992 77.6593 52.0447 78.1209 51.5806C78.5824 51.1165 79.3328 51.1165 79.7944 51.5806C80.256 52.0447 80.256 52.7992 79.7944 53.2633ZM80.239 50.5072C79.5848 50.5072 79.0553 49.9748 79.0553 49.3171C79.0553 48.6594 79.5848 48.127 80.239 48.127C80.8931 48.127 81.4226 48.6594 81.4226 49.3171C81.4226 49.9748 80.8931 50.5072 80.239 50.5072Z" fill="#0E2A65"/>
<path d="M57.9478 60.0168V69.7798H56.4073V60.0168H57.9478Z" fill="#0E2A65" fill-opacity="0.41"/>
<path d="M59.559 64.709C59.559 63.9118 59.5307 63.3481 59.5024 62.7246H60.8418L60.9296 63.5645H60.9579C61.2892 63.0292 61.8499 62.6078 62.5861 62.6078C63.3223 62.6078 63.8405 62.9552 64.0841 63.6214H64.1124C64.2993 63.3168 64.5456 63.0434 64.8175 62.8669C65.1063 62.6932 65.4376 62.605 65.7973 62.605C66.9073 62.605 67.5557 63.4734 67.5557 65.213V69.7742H66.0295V65.5006C66.0295 64.6464 65.9134 63.8919 65.2224 63.8919C64.8345 63.8919 64.5173 64.1966 64.3729 64.7176C64.3446 64.8628 64.3304 65.0649 64.3304 65.2813V69.7713H62.79V65.2671C62.79 64.6293 62.7022 63.8919 62.0113 63.8919C61.6516 63.8919 61.292 64.1823 61.1618 64.7603C61.1193 64.9055 61.091 65.1077 61.091 65.3098V69.7713H59.5647V64.7005L59.559 64.709Z" fill="#0E2A65" fill-opacity="0.41"/>
<path d="M73.2871 68.1713C73.2871 68.7208 73.3013 69.3159 73.3749 69.78H71.993L71.9053 69.0568H71.8769C71.5173 69.6063 70.9991 69.8967 70.3931 69.8967C69.385 69.8967 68.6205 69.0425 68.6205 67.8097C68.6205 65.9989 70.1468 65.2302 71.7325 65.2159V65.028C71.7325 64.3048 71.4437 63.7809 70.682 63.7809C70.1779 63.7809 69.7588 63.9262 69.3709 64.171L69.0821 63.1147C69.4275 62.8983 70.1638 62.6079 71.0133 62.6079C72.8284 62.6079 73.29 63.855 73.29 65.3611V68.1713H73.2871ZM71.775 66.2438C71.169 66.258 70.0901 66.4174 70.0901 67.6474C70.0901 68.4446 70.5092 68.735 70.8547 68.735C71.2285 68.735 71.6051 68.4731 71.7325 67.9236C71.7608 67.8211 71.775 67.693 71.775 67.562V66.2438Z" fill="#0E2A65" fill-opacity="0.41"/>
<path d="M79.4829 68.937C79.4829 70.6026 79.2224 71.3714 78.7042 71.9066C78.2285 72.3992 77.5234 72.6754 76.6144 72.6754C75.9801 72.6754 75.3911 72.5444 74.9437 72.3423L75.2608 71.1408C75.578 71.3002 76.0254 71.4454 76.5861 71.4454C77.5092 71.4454 77.9538 70.8503 77.9538 69.5321V68.9826H77.9255C77.6819 69.4752 77.1751 69.7513 76.6285 69.7513C75.2014 69.7513 74.4963 68.1569 74.4963 66.3034C74.4963 63.8406 75.6063 62.6106 76.7871 62.6106C77.4214 62.6106 77.8377 63.0007 78.084 63.479H78.1124L78.2001 62.7245H79.5537C79.5112 63.3025 79.4829 64 79.4829 64.9396V68.937ZM77.9566 65.23C77.9566 65.0563 77.9283 64.8684 77.8858 64.7232C77.7839 64.3331 77.5687 63.926 77.1071 63.926C76.3737 63.926 76.0254 64.9111 76.0254 66.2578C76.0254 67.7782 76.487 68.5185 77.076 68.5185C77.3648 68.5185 77.6961 68.3733 77.8688 67.7811C77.9396 67.5932 77.9566 67.391 77.9566 67.2031V65.2328V65.23Z" fill="#0E2A65" fill-opacity="0.41"/>
<path d="M82.5072 60.8854C82.5213 61.4064 82.1617 61.768 81.6577 61.768C81.2103 61.768 80.8506 61.4064 80.8648 60.8854C80.8506 60.3359 81.2244 59.9885 81.686 59.9885C82.1475 59.9885 82.5072 60.3359 82.5072 60.8854ZM80.9243 69.7771V62.7247H82.4647V69.7771H80.9243Z" fill="#0E2A65" fill-opacity="0.41"/>
<path d="M83.9202 64.7091C83.9202 63.9119 83.8918 63.3482 83.8635 62.7246H85.2029L85.2737 63.5503H85.302C85.6333 62.9866 86.2252 62.6079 86.9586 62.6079C88.1394 62.6079 88.7595 63.5219 88.7595 65.1561V69.7771H87.2191V65.3013C87.2191 64.6066 87.0747 63.9119 86.3979 63.9119C86.0241 63.9119 85.6786 64.2023 85.5342 64.7803C85.4918 64.9255 85.4634 65.1561 85.4634 65.4181V69.7771H83.923V64.7063L83.9202 64.7091Z" fill="#0E2A65" fill-opacity="0.41"/>
<path d="M94.9383 68.937C94.9383 70.6026 94.6778 71.3714 94.1596 71.9066C93.6839 72.3992 92.9788 72.6754 92.0698 72.6754C91.4355 72.6754 90.8465 72.5444 90.3991 72.3423L90.7163 71.1408C91.0334 71.3002 91.4808 71.4454 92.0415 71.4454C92.9647 71.4454 93.4092 70.8503 93.4092 69.5321V68.9826H93.3809C93.1374 69.4752 92.6305 69.7513 92.084 69.7513C90.6568 69.7513 89.9517 68.1569 89.9517 66.3034C89.9517 63.8406 91.0617 62.6106 92.2426 62.6106C92.8769 62.6106 93.2931 63.0007 93.5395 63.479H93.5678L93.6556 62.7245H95.0091C94.9667 63.3025 94.9383 64 94.9383 64.9396V68.937ZM93.4121 65.23C93.4121 65.0563 93.3837 64.8684 93.3413 64.7232C93.2393 64.3331 93.0241 63.926 92.5625 63.926C91.8291 63.926 91.4808 64.9111 91.4808 66.2578C91.4808 67.7782 91.9424 68.5185 92.5314 68.5185C92.8202 68.5185 93.1515 68.3733 93.3243 67.7811C93.3951 67.5932 93.4121 67.391 93.4121 67.2031V65.2328V65.23Z" fill="#0E2A65" fill-opacity="0.41"/>
<path d="M98.8433 60.162C99.3756 60.0311 100.052 59.9741 100.701 59.9741C101.695 59.9741 102.53 60.1478 103.108 60.6831C103.64 61.2041 103.841 61.8561 103.841 62.6676C103.841 63.7979 103.295 64.6805 102.315 65.1304V65.1588C102.992 65.4037 103.351 66.0557 103.538 67.2145C103.753 68.4018 103.986 69.4438 104.144 69.777H102.544C102.414 69.5008 102.213 68.547 102.04 67.4024C101.853 66.1411 101.494 65.7226 100.729 65.7226H100.37V69.777H98.8433V60.1592V60.162ZM100.37 64.5353H100.772C101.695 64.5353 102.27 63.8121 102.27 62.8128C102.27 61.8134 101.896 61.2041 100.888 61.1899C100.701 61.1899 100.5 61.2041 100.37 61.2468V64.5353Z" fill="#0E2A65" fill-opacity="0.41"/>
<path d="M106.347 66.6651C106.361 68.2425 107.095 68.6781 107.916 68.6781C108.42 68.6781 108.853 68.5614 109.17 68.4162L109.386 69.5323C108.952 69.7344 108.276 69.8654 107.627 69.8654C105.826 69.8654 104.846 68.5471 104.846 66.3605C104.846 64.0287 105.971 62.6079 107.469 62.6079C108.967 62.6079 109.686 63.9546 109.686 65.8366C109.686 66.2409 109.657 66.4744 109.643 66.6623H106.344L106.347 66.6651ZM108.264 65.5633C108.278 64.433 107.905 63.7667 107.355 63.7667C106.693 63.7667 106.39 64.7376 106.361 65.5633H108.261H108.264Z" fill="#0E2A65" fill-opacity="0.41"/>
<path d="M110.728 68.3165C110.988 68.4902 111.478 68.6923 111.937 68.6923C112.484 68.6923 112.815 68.3877 112.815 67.8809C112.815 67.4453 112.614 67.1577 111.965 66.7363C110.929 66.1128 110.538 65.4323 110.538 64.7234C110.538 63.5076 111.43 62.6079 112.685 62.6079C113.259 62.6079 113.693 62.7674 114.038 62.9553L113.721 64.0998C113.446 63.9262 113.132 63.7952 112.755 63.7952C112.223 63.7952 111.963 64.1425 111.963 64.5326C111.963 64.9227 112.135 65.1277 112.812 65.5604C113.749 66.1242 114.239 66.8217 114.239 67.6901C114.239 69.1251 113.245 69.8625 111.92 69.8625C111.374 69.8625 110.739 69.7031 110.422 69.4582L110.725 68.3137L110.728 68.3165Z" fill="#0E2A65" fill-opacity="0.41"/>
<path d="M116.547 66.6651C116.561 68.2425 117.295 68.6781 118.116 68.6781C118.62 68.6781 119.053 68.5614 119.37 68.4162L119.585 69.5323C119.152 69.7344 118.475 69.8654 117.827 69.8654C116.026 69.8654 115.046 68.5471 115.046 66.3605C115.046 64.0287 116.17 62.6079 117.668 62.6079C119.166 62.6079 119.886 63.9546 119.886 65.8366C119.886 66.2409 119.857 66.4744 119.843 66.6623H116.544L116.547 66.6651ZM118.464 65.5633C118.478 64.433 118.105 63.7667 117.555 63.7667C116.893 63.7667 116.59 64.7376 116.561 65.5633H118.461H118.464Z" fill="#0E2A65" fill-opacity="0.41"/>
<path d="M125.32 68.1713C125.32 68.7208 125.334 69.3159 125.407 69.78H124.026L123.938 69.0568H123.909C123.55 69.6063 123.032 69.8967 122.426 69.8967C121.418 69.8967 120.653 69.0425 120.653 67.8097C120.653 65.9989 122.179 65.2302 123.765 65.2159V65.028C123.765 64.3048 123.476 63.7809 122.714 63.7809C122.21 63.7809 121.791 63.9262 121.403 64.171L121.115 63.1147C121.46 62.8983 122.196 62.6079 123.046 62.6079C124.861 62.6079 125.322 63.855 125.322 65.3611V68.1713H125.32ZM123.808 66.2438C123.202 66.258 122.123 66.4174 122.123 67.6474C122.123 68.4446 122.539 68.735 122.887 68.735C123.261 68.735 123.635 68.4731 123.765 67.9236C123.793 67.8211 123.808 67.693 123.808 67.562V66.2438Z" fill="#0E2A65" fill-opacity="0.41"/>
<path d="M126.789 64.7091C126.789 64.0571 126.747 63.3339 126.733 62.7246H128.072L128.16 63.7952H128.202C128.477 63.072 129.052 62.6079 129.629 62.6079C129.774 62.6079 129.859 62.6221 129.947 62.6364V64.1852C129.862 64.1568 129.76 64.1568 129.629 64.1568C129.097 64.1568 128.548 64.6066 128.389 65.3725C128.347 65.5462 128.333 65.7768 128.333 66.053V69.7743H126.792V64.7034L126.789 64.7091Z" fill="#0E2A65" fill-opacity="0.41"/>
<path d="M134.324 69.6348C134.109 69.7515 133.662 69.8654 133.144 69.8654C131.473 69.8654 130.363 68.6183 130.363 66.3036C130.363 64.2023 131.53 62.625 133.387 62.625C133.803 62.625 134.208 62.7275 134.395 62.8271L134.166 64.0571C134.007 64.0002 133.764 63.8977 133.415 63.8977C132.422 63.8977 131.903 64.9853 131.903 66.2722C131.903 67.7215 132.481 68.5898 133.415 68.5898C133.704 68.5898 133.948 68.5471 134.166 68.4304L134.324 69.6319V69.6348Z" fill="#0E2A65" fill-opacity="0.41"/>
<path d="M135.188 59.755H136.729V63.4762H136.757C136.916 63.2314 137.131 63.0121 137.363 62.8669C137.623 62.7075 137.924 62.605 138.3 62.605C139.41 62.605 140.028 63.5332 140.028 65.3127V69.7742H138.487V65.3696C138.487 64.6009 138.329 63.9062 137.68 63.9062C137.278 63.9062 136.947 64.1823 136.788 64.7745C136.76 64.9055 136.731 65.1361 136.731 65.3098V69.7713H135.191V59.7493L135.188 59.755Z" fill="#0E2A65" fill-opacity="0.41"/>
<path d="M55.7787 74.7281C56.6707 74.5459 57.9507 74.4434 59.1683 74.4434C61.0542 74.4434 62.2718 74.7907 63.1242 75.5651C63.8151 76.1773 64.2002 77.1169 64.2002 78.176C64.2002 79.9925 63.0647 81.194 61.6234 81.6837V81.7435C62.6796 82.1108 63.3082 83.0902 63.6311 84.5195C64.0785 86.4385 64.4013 87.7625 64.6873 88.2949H62.8608C62.6371 87.9077 62.3341 86.7233 61.949 85.0092C61.5441 83.113 60.8135 82.3984 59.2108 82.3357H57.5457V88.292H55.7787V74.7252V74.7281ZM57.5457 80.9919H59.3524C61.2383 80.9919 62.4361 79.9527 62.4361 78.381C62.4361 76.6072 61.159 75.8299 59.2901 75.81C58.4377 75.81 57.8289 75.8926 57.5457 75.9723V80.9919Z" fill="#0E2A65"/>
<path d="M74.5275 81.8491H69.2124V86.806H75.1363V88.2951H67.4454V74.5432H74.8305V76.0323H69.2095V80.3771H74.5246V81.8462L74.5275 81.8491Z" fill="#0E2A65"/>
<path d="M88.5868 87.6829C87.7968 87.9676 86.2337 88.4374 84.3874 88.4374C82.3175 88.4374 80.6128 87.9078 79.2734 86.6209C78.0954 85.4792 77.3648 83.6427 77.3648 81.4988C77.3846 77.3989 80.1852 74.3979 84.7697 74.3979C86.3526 74.3979 87.5901 74.7453 88.1791 75.03L87.7543 76.4792C87.0237 76.1518 86.1119 75.887 84.7301 75.887C81.4028 75.887 79.2309 77.9683 79.2309 81.4163C79.2309 84.8642 81.3207 86.9654 84.5064 86.9654C85.6617 86.9654 86.4546 86.8031 86.8595 86.5981V82.4982H84.0788V81.0689H88.584V87.6801L88.5868 87.6829Z" fill="#0E2A65"/>
<path d="M93.8028 74.5459V88.2978H92.0387V74.5459H93.8028Z" fill="#0E2A65"/>
<path d="M97.3935 86.134C98.1835 86.6237 99.3417 87.0309 100.559 87.0309C102.366 87.0309 103.419 86.0714 103.419 84.6848C103.419 83.4007 102.689 82.6661 100.842 81.9515C98.6111 81.1571 97.2321 79.9926 97.2321 78.0537C97.2321 75.9126 98.9962 74.321 101.655 74.321C103.054 74.321 104.071 74.6485 104.679 74.993L104.192 76.4422C103.745 76.1973 102.833 75.7902 101.596 75.7902C99.7296 75.7902 99.0189 76.912 99.0189 77.8515C99.0189 79.1356 99.8514 79.7705 101.737 80.5023C104.051 81.3991 105.229 82.5209 105.229 84.5424C105.229 86.6636 103.666 88.5 100.44 88.5C99.1208 88.5 97.6795 88.1128 96.9517 87.6231L97.3991 86.134H97.3935Z" fill="#0E2A65"/>
<path d="M110.986 76.0549H106.826V74.5459H116.952V76.0549H112.772V88.2949H110.986V76.0549Z" fill="#0E2A65"/>
<path d="M119.223 74.7281C120.115 74.5459 121.395 74.4434 122.613 74.4434C124.498 74.4434 125.716 74.7907 126.568 75.5651C127.259 76.1773 127.645 77.1169 127.645 78.176C127.645 79.9925 126.509 81.194 125.068 81.6837V81.7435C126.124 82.1108 126.753 83.0902 127.075 84.5195C127.523 86.4385 127.846 87.7625 128.132 88.2949H126.305C126.081 87.9077 125.778 86.7233 125.393 85.0092C124.988 83.113 124.258 82.3984 122.655 82.3357H120.99V88.292H119.226V74.7252L119.223 74.7281ZM120.99 80.9919H122.797C124.683 80.9919 125.88 79.9527 125.88 78.381C125.88 76.6072 124.603 75.8299 122.734 75.81C121.882 75.81 121.273 75.8926 120.99 75.9723V80.9919Z" fill="#0E2A65"/>
<path d="M133.71 88.2949V82.4611L129.389 74.5459H131.397L133.325 78.3412C133.852 79.3804 134.259 80.2175 134.684 81.177H134.724C135.109 80.2801 135.576 79.3804 136.103 78.3412L138.071 74.5459H140.079L135.494 82.4411V88.2949H133.707H133.71Z" fill="#0E2A65"/>
<path d="M142.536 74.674V74.9929H141.922V76.6072H141.54V74.9929H140.925V74.674H142.539H142.536ZM144.618 76.6101L144.547 75.4712C144.538 75.3231 144.538 75.1381 144.533 74.9302H144.51C144.462 75.1011 144.403 75.3288 144.346 75.5054L144 76.5788H143.604L143.259 75.4769C143.225 75.3288 143.165 75.1011 143.123 74.9302H143.103C143.103 75.1068 143.094 75.2918 143.089 75.4712L143.018 76.6101H142.65L142.791 74.674H143.363L143.695 75.6193C143.737 75.7673 143.771 75.9097 143.822 76.109H143.831C143.879 75.9324 143.924 75.7673 143.964 75.6249L144.295 74.6711H144.847L144.997 76.6072H144.615L144.618 76.6101Z" fill="#0E2A65"/>
</g>
<defs>
<clipPath id="clip0_978_4157">
<rect width="90" height="49" fill="white" transform="translate(55 39.5)"/>
</clipPath>
</defs>
</svg>
