<svg width="200" height="136" viewBox="0 0 200 136" fill="none" xmlns="http://www.w3.org/2000/svg">
<rect width="200" height="136" fill="#0E2A65"/>
<rect width="200" height="136" fill="#0E2A65"/>
<path d="M36.2189 72.3812L35.0817 75.6042H31.56L37.2985 60.5636H41.4648L47.2033 75.6042H43.5086L42.3714 72.3812H36.2189ZM41.3757 69.6089L39.2899 63.6975L37.2042 69.6089H41.3757Z" fill="#00FF00"/>
<path d="M47.371 68.021C47.371 63.1 51.0656 60.2439 54.9332 60.2439C58.5859 60.2439 61.463 62.4135 61.919 65.6994H58.4182C58.0094 64.1953 56.7202 63.231 54.9175 63.231C52.7269 63.231 50.987 65.081 50.987 68.021C50.987 70.961 52.7479 72.879 54.9384 72.879C56.6993 72.879 57.9466 71.9567 58.4392 70.4107H61.9399C61.4054 73.7175 58.565 75.8662 54.9122 75.8662C50.9398 75.8662 47.371 72.9629 47.371 68.0262V68.021Z" fill="#00FF00"/>
<path d="M67.4845 70.1696V75.6042H64.0467V60.5636H71.0062C74.8109 60.5636 76.4198 62.7332 76.4198 65.2906C76.4198 67.5703 75.1306 69.0272 73.4536 69.6089V69.6508C73.6265 69.9495 73.7523 70.1434 73.9881 70.5732L76.8443 75.5989H72.8719L70.0786 70.4631C69.9266 70.2063 69.8847 70.1644 69.5441 70.1644H67.4793L67.4845 70.1696ZM67.4845 67.3764H70.5765C72.1225 67.3764 72.919 66.5798 72.919 65.3797C72.919 64.1796 72.1015 63.3621 70.5765 63.3621H67.4845V67.3816V67.3764Z" fill="#00FF00"/>
<path d="M84.0501 60.5636H89.6576C94.4475 60.5636 97.5867 63.0109 97.5867 68C97.5867 72.9891 94.4266 75.6042 89.6366 75.6042H84.0501V60.5636ZM89.2908 72.7271C92.3827 72.7271 93.9968 70.9662 93.9968 68.021C93.9968 65.0757 92.388 63.4459 89.2908 63.4459H87.5509V72.7271H89.2908Z" fill="white"/>
<path d="M99.7773 60.5636H103.278V75.6042H99.7773V60.5636Z" fill="white"/>
<path d="M109.703 70.1696V75.6042H106.265V60.5636H113.225C117.029 60.5636 118.638 62.7332 118.638 65.2906C118.638 67.5703 117.349 69.0272 115.672 69.6089V69.6508C115.845 69.9495 115.971 70.1434 116.207 70.5732L119.063 75.5989H115.09L112.297 70.4631C112.145 70.2063 112.103 70.1644 111.763 70.1644H109.698L109.703 70.1696ZM109.703 67.3764H112.795C114.341 67.3764 115.138 66.5798 115.138 65.3797C115.138 64.1796 114.32 63.3621 112.795 63.3621H109.703V67.3816V67.3764Z" fill="white"/>
<path d="M126.269 60.5636H129.769V72.6799H136.582V75.6042H126.269V60.5636Z" fill="white"/>
<path d="M138.364 60.1338H141.65V62.8432H138.364V60.1338ZM138.364 64.473H141.629V75.6041H138.364V64.473Z" fill="white"/>
<path d="M144.275 75.6041V64.4731H147.436V65.8251C148.143 64.7927 149.369 64.2163 150.811 64.2163C153.237 64.2163 154.872 65.6784 154.872 68.6656V75.6041H151.607V69.242C151.607 67.8218 150.879 67.0095 149.652 67.0095C148.515 67.0095 147.546 67.848 147.546 69.6718V75.6041H144.275Z" fill="white"/>
<path d="M162.235 70.8561L160.579 72.575V75.6041H157.356V60.1338H160.579V68.7284L164.447 64.473H168.377L164.489 68.5136L168.44 75.6041H164.829L162.23 70.8561H162.235Z" fill="white"/>
</svg>
