<svg width="200" height="136" viewBox="0 0 200 136" fill="none" xmlns="http://www.w3.org/2000/svg">
<rect width="200" height="136" fill="#0E2A65"/>
<rect width="200" height="136" fill="#0E2A65"/>
<path d="M41.0222 71.6103H35.648L34.6375 74.3399H31.56L36.5667 61.6605H40.2413L45.248 74.2959H41.9868L40.9762 71.5663L41.0222 71.6103ZM40.1495 69.277L38.3121 64.302L36.4748 69.277H40.1495Z" fill="white"/>
<path d="M45.3858 67.956C45.3858 63.8176 48.647 61.4402 52.0001 61.4402C55.3532 61.4402 57.7417 63.2452 58.1092 66.0189H55.0317C54.6642 64.7421 53.5618 63.9496 51.9542 63.9496C50.3465 63.9496 48.5092 65.4905 48.5092 67.956C48.5092 70.4214 50.0709 72.0504 51.9542 72.0504C53.8374 72.0504 54.5724 71.2579 55.0317 69.9812H58.1092C57.6499 72.7548 55.1695 74.5598 51.9542 74.5598C48.7389 74.5598 45.3398 72.1384 45.3398 67.956H45.3858Z" fill="white"/>
<path d="M63.024 74.3397H59.9925V61.6603H66.1015C69.4546 61.6603 70.8326 63.4654 70.8326 65.6226C70.8326 67.7799 69.6843 68.7485 68.2144 69.2328C68.3522 69.5409 68.49 69.673 68.6738 70.0252L71.2001 74.2517H67.7092L65.2747 69.9372C65.1369 69.717 65.091 69.673 64.8154 69.673H63.024V74.3397ZM63.024 67.3837H65.7341C67.1121 67.3837 67.8011 66.7233 67.8011 65.7107C67.8011 64.6981 67.0661 63.9937 65.7341 63.9937H63.024V67.3837Z" fill="white"/>
<path d="M85.8068 71.6101H80.4326L79.4221 74.3397H76.3446L81.3513 61.7044H85.0259L90.0326 74.3397H86.7714L85.7608 71.6101H85.8068ZM84.934 69.2768L83.0967 64.3019L81.2594 69.2768H84.934Z" fill="white"/>
<path d="M90.7216 71.346H93.3857C93.5235 72.2265 94.3044 72.6227 95.3608 72.6227C96.4173 72.6227 96.9225 72.3145 96.9225 71.6982C96.9225 71.0818 96.3713 70.8617 95.1311 70.6856L94.1206 70.5095C92.1455 70.1573 90.8594 69.3208 90.8594 67.8239C90.8594 66.327 92.6967 64.7421 95.0393 64.7421C97.3819 64.7421 99.1273 65.8427 99.4029 67.7358H96.7847C96.601 67.0314 95.9579 66.6352 94.9934 66.6352C94.0288 66.6352 93.5235 66.9874 93.5235 67.5597C93.5235 68.1321 94.0288 68.2642 95.0852 68.4403L96.0957 68.6164C98.3005 69.0126 99.6326 69.8051 99.6326 71.434C99.6326 73.063 97.6115 74.5598 95.2689 74.5598C92.9264 74.5598 90.9972 73.5472 90.6757 71.39L90.7216 71.346Z" fill="white"/>
<path d="M100.873 71.346H103.537C103.675 72.2265 104.455 72.6227 105.512 72.6227C106.568 72.6227 107.074 72.3145 107.074 71.6982C107.074 71.0818 106.522 70.8617 105.282 70.6856L104.272 70.5095C102.297 70.1573 101.011 69.3208 101.011 67.8239C101.011 66.327 102.848 64.7421 105.19 64.7421C107.533 64.7421 109.278 65.8427 109.554 67.7358H106.936C106.752 67.0314 106.109 66.6352 105.144 66.6352C104.18 66.6352 103.675 66.9874 103.675 67.5597C103.675 68.1321 104.18 68.2642 105.236 68.4403L106.247 68.6164C108.452 69.0126 109.784 69.8051 109.784 71.434C109.784 73.063 107.763 74.5598 105.42 74.5598C103.078 74.5598 101.148 73.5472 100.827 71.39L100.873 71.346Z" fill="white"/>
<path d="M116.122 74.5158C113.321 74.5158 110.932 72.6667 110.932 69.5849C110.932 66.5031 113.366 64.7421 116.076 64.7421C118.787 64.7421 121.129 66.5031 121.129 69.8051V70.3774H113.826C113.964 71.7422 114.974 72.5347 116.26 72.5347C117.546 72.5347 117.914 72.2705 118.327 71.5221H121.083C120.486 73.6353 118.327 74.5598 116.168 74.5598L116.122 74.5158ZM113.78 68.6164H118.235C118.143 67.4717 117.271 66.7233 116.031 66.7233C114.79 66.7233 113.918 67.4277 113.78 68.6164Z" fill="white"/>
<path d="M122.231 71.346H124.896C125.033 72.2265 125.814 72.6227 126.871 72.6227C127.927 72.6227 128.432 72.3145 128.432 71.6982C128.432 71.0818 127.881 70.8617 126.641 70.6856L125.631 70.5095C123.655 70.1573 122.369 69.3208 122.369 67.8239C122.369 66.327 124.207 64.7421 126.549 64.7421C128.892 64.7421 130.637 65.8427 130.913 67.7358H128.295C128.111 67.0314 127.468 66.6352 126.503 66.6352C125.539 66.6352 125.033 66.9874 125.033 67.5597C125.033 68.1321 125.539 68.2642 126.595 68.4403L127.606 68.6164C129.81 69.0126 131.142 69.8051 131.142 71.434C131.142 73.063 129.121 74.5598 126.779 74.5598C124.436 74.5598 122.507 73.5472 122.186 71.39L122.231 71.346Z" fill="white"/>
<path d="M132.383 71.346H135.047C135.185 72.2265 135.966 72.6227 137.022 72.6227C138.078 72.6227 138.584 72.3145 138.584 71.6982C138.584 71.0818 138.033 70.8617 136.792 70.6856L135.782 70.5095C133.807 70.1573 132.521 69.3208 132.521 67.8239C132.521 66.327 134.358 64.7421 136.7 64.7421C139.043 64.7421 140.788 65.8427 141.064 67.7358H138.446C138.262 67.0314 137.619 66.6352 136.655 66.6352C135.69 66.6352 135.185 66.9874 135.185 67.5597C135.185 68.1321 135.69 68.2642 136.746 68.4403L137.757 68.6164C139.962 69.0126 141.294 69.8051 141.294 71.434C141.294 73.063 139.273 74.5598 136.93 74.5598C134.588 74.5598 132.658 73.5472 132.337 71.39L132.383 71.346Z" fill="white"/>
<path d="M142.993 67.9119H149.194V70.4214H142.993V67.9119Z" fill="white"/>
<path d="M159.759 71.6101H154.384L153.374 74.3397H150.296L155.303 61.7044H158.978L163.984 74.3397H160.723L159.713 71.6101H159.759ZM158.886 69.2768L157.049 64.3019L155.211 69.2768H158.886Z" fill="white"/>
<path d="M165.363 61.6603H168.44V74.2957H165.363V61.6603Z" fill="white"/>
</svg>
